<?xml version="1.0" encoding="UTF-8"?>
<svg width="110px" height="50px" viewBox="0 0 110 50" version="1.1" xmlns="http://www.w3.org/2000/svg" xmlns:xlink="http://www.w3.org/1999/xlink">
    <title>ahorro-f</title>
    <defs>
        <polygon id="path-1" points="0 25 65 25 65 0 0 0"></polygon>
    </defs>
    <g id="ahorro-f" stroke="none" stroke-width="1" fill="none" fill-rule="evenodd">
        <g id="Group-34" transform="translate(22.000000, 13.000000)">
            <polygon id="Fill-1" fill="#243487" points="29.3727628 4.40090475 31.6785669 4.40090475 31.6785669 5.53286178 30.5322535 5.53286178 30.5322535 6.39888872 31.6785669 6.39888872 31.6785669 7.63512891 30.5750247 7.63512891 30.5750247 9.99132848 29.3727628 9.99132848"></polygon>
            <g id="Group-33">
                <path d="M35.2739049,5.77743177 L36.1848941,5.7753429 L36.1848941,6.21861329 C36.1848941,6.21861329 36.3593832,5.68032578 36.8346986,5.7643629 L36.8346986,6.99872846 C36.8346986,6.99872846 36.2072406,6.95475493 36.2072406,7.54676406 L36.2072406,9.97810964 L35.2633631,9.97677062 L35.2739049,5.77743177 Z" id="Fill-2" fill="#243487"></path>
                <path d="M37.3654575,5.77536432 L38.1954064,5.77536432 L38.1954064,6.04600778 C38.1954064,6.04600778 38.223463,6.11601194 38.2682108,6.03465286 C38.311586,5.95350803 38.5212146,5.68811354 38.8540507,5.68811354 C39.1856788,5.68811354 39.4736573,6.03465286 39.4736573,6.03465286 C39.4736573,6.03465286 39.5031963,6.0798583 39.540532,6.07219908 C39.5797344,6.06759284 39.5902762,6.02999306 39.5902762,6.02999306 C39.5902762,6.02999306 39.8000694,5.68302525 40.2100475,5.68302525 C40.6197511,5.68302525 40.9720785,6.16003904 40.9720785,6.63983799 L40.9720785,9.97813107 L40.1936857,9.97813107 L40.1936857,7.03634967 C40.1936857,7.03634967 40.2156478,6.61707459 39.8906632,6.61707459 C39.5627137,6.61707459 39.5797344,7.0629159 39.5797344,7.0629159 L39.5797344,9.97679204 L38.7867367,9.97679204 L38.7867367,7.03634967 C38.7867367,7.03634967 38.8273118,6.61707459 38.5166574,6.61707459 C38.2052344,6.61707459 38.2519039,7.03634967 38.2519039,7.03634967 L38.2519039,9.97813107 L37.3684223,9.97813107 L37.3654575,5.77536432 Z" id="Fill-4" fill="#243487"></path>
                <path d="M46.8647213,7.41412574 L46.1024707,7.41412574 L46.1024707,7.04118087 C46.1024707,7.04118087 46.11153,6.58194932 45.8313482,6.58194932 C45.5496838,6.58194932 45.5312356,7.05167881 45.5312356,7.05167881 L45.5312356,8.73483154 C45.5312356,8.73483154 45.557096,9.11211484 45.8313482,9.11211484 C46.1024707,9.11211484 46.0945094,8.77189571 46.0945094,8.77189571 L46.0945094,8.3825612 L46.8825655,8.3825612 L46.8825655,9.32716204 C46.8825655,9.32716204 46.8453946,10.0276321 45.7756742,10.0276321 C44.7038673,10.0276321 44.6856387,9.2332697 44.6856387,9.2332697 L44.6856387,6.75591527 C44.6856387,6.75591527 44.6648845,5.69406952 45.8016444,5.69406952 C46.939118,5.69406952 46.8742748,6.57166562 46.8742748,6.57166562 L46.8647213,7.41412574 Z" id="Fill-6" fill="#243487"></path>
                <polygon id="Fill-8" fill="#243487" points="47.4650342 5.76697132 48.4428431 5.76697132 48.4428431 9.99057327 47.4603672 9.99057327"></polygon>
                <mask id="mask-2" fill="white">
                    <use xlink:href="#path-1"></use>
                </mask>
                <g id="Clip-11"></g>
                <polygon id="Fill-10" fill="#243487" mask="url(#mask-2)" points="47.4898679 5.48389101 48.447856 5.48389101 48.447856 4.40308468 47.4898679 4.40308468"></polygon>
                <path d="M53.5413517,7.2075733 L54.2840561,7.2075733 L54.2840561,6.40356994 C54.2840561,6.40356994 54.2641804,5.69404809 53.222791,5.69404809 C52.1779427,5.69404809 52.1779427,6.58937287 52.1779427,6.58937287 C52.1779427,6.58937287 52.0749952,7.64125628 52.6208639,8.0183789 C53.1655248,8.39646562 53.4750261,8.73770241 53.4750261,8.73770241 C53.4750261,8.73770241 53.6922865,9.35558148 53.222791,9.35558148 C52.751319,9.35558148 52.902693,8.70872594 52.902693,8.70872594 L52.1779427,8.70872594 L52.1779427,9.44893821 C52.1779427,9.44893821 52.2078661,10.0362875 53.2026957,10.0362875 C54.1984038,10.0362875 54.3299569,9.48359214 54.3299569,9.30935838 C54.3299569,9.1335178 54.470295,8.2206786 53.9357916,7.88104864 C53.9357916,7.88104864 52.9590258,7.25261806 52.9590258,6.94898106 C52.9590258,6.64314806 52.9785172,6.44936455 53.2593031,6.44936455 C53.5413517,6.44936455 53.5511249,6.66194795 53.5413517,7.2075733" id="Fill-12" fill="#243487" mask="url(#mask-2)"></path>
                <path d="M57.397265,8.66347229 L57.397265,7.23291299 C57.397265,7.23291299 57.3509249,6.82070795 57.670419,6.82070795 C57.9896385,6.82070795 57.9143084,7.25160576 57.9143084,7.25160576 L57.9143084,8.71869363 C57.9143084,8.71869363 57.9704766,9.07439187 57.6600968,9.07439187 C57.3509249,9.07439187 57.397265,8.66347229 57.397265,8.66347229 M58.0458067,9.79028747 L58.0458067,9.98551712 L58.7493635,9.98551712 L58.7493635,4.42958664 L57.9424199,4.42958664 L57.9424199,6.17894069 C57.9424199,6.17894069 57.6782704,5.57204161 57.1439867,5.70144486 C56.442077,5.86957267 56.5053279,6.96821479 56.5053279,6.96821479 L56.5053279,9.20368799 C56.5053279,9.20368799 56.5053279,9.81776424 56.984322,9.97405508 C57.5265121,10.1492529 58.0458067,9.79028747 58.0458067,9.79028747" id="Fill-13" fill="#243487" mask="url(#mask-2)"></path>
                <path d="M60.3774876,7.0377851 C60.3774876,7.0377851 60.3877549,6.69745885 60.6893499,6.69745885 C60.9889133,6.69745885 61.0073066,7.00098874 61.0073066,7.00098874 L61.0073066,7.49856992 L60.3703499,7.49856992 L60.3774876,7.0377851 Z M60.9142421,8.56582533 L60.9142421,9.03496566 C60.9142421,9.03496566 60.9655786,9.35558148 60.6694193,9.34669036 C60.3612906,9.33683515 60.4047756,9.08916933 60.4047756,9.08916933 L60.4047756,8.20632426 L61.7393593,8.20632426 L61.7393593,6.90007991 C61.7393593,6.90007991 61.797559,5.69158429 60.6694193,5.69158429 C59.5438052,5.69158429 59.5145406,6.89081387 59.5145406,6.89081387 L59.5145406,9.19093513 C59.5145406,9.19093513 59.5332084,10.0311993 60.6517397,10.0311993 C61.7686239,10.0311993 61.7686239,9.40185814 61.7686239,9.40185814 L61.7686239,8.56582533 L60.9142421,8.56582533 Z" id="Fill-14" fill="#243487" mask="url(#mask-2)"></path>
                <polygon id="Fill-15" fill="#243487" mask="url(#mask-2)" points="62.4873126 9.99056256 63.4282801 9.99056256 63.4282801 4.42959735 62.4873126 4.42959735"></polygon>
                <path d="M29.2557156,18.3543132 L30.1902592,16.2850931 L30.2919988,18.3543132 L29.2557156,18.3543132 Z M30.5260602,22.3944689 L32.9469458,22.3944689 L32.5789154,12.6200783 L29.5575302,12.6200783 L24.5278729,22.391041 L26.9488135,22.391041 L28.0537831,20.3438345 L30.5260602,20.3438345 L30.5260602,22.3944689 Z" id="Fill-16" fill="#243487" mask="url(#mask-2)"></path>
                <path d="M35.0467287,12.6182197 L37.4025515,12.6182197 L37.1178125,15.5364343 C37.1178125,15.5364343 37.1178125,15.5850676 37.2331686,15.5364343 C37.3518739,15.4882294 38.6403921,15.0877007 39.4226832,15.5850676 C40.2417608,16.1078225 40.289803,16.4810351 40.2055782,17.1006282 C40.1223417,17.7204354 39.4629837,22.391057 39.4629837,22.391057 L37.0075077,22.391057 L37.6516021,17.6052258 C37.6516021,17.6052258 37.7350032,17.0844528 37.3850916,17.0844528 C37.0336426,17.0844528 36.9179571,17.5246166 36.9179571,17.5246166 L36.1989169,22.3944314 L33.8457295,22.3944314 L35.0467287,12.6182197 Z" id="Fill-17" fill="#243487" mask="url(#mask-2)"></path>
                <path d="M48.3963328,15.519509 L50.7008192,15.519509 L50.6490435,15.747518 C50.6490435,15.747518 50.7443591,15.8462308 50.821556,15.7327352 C50.9011687,15.6187039 51.6193304,15.161347 52.5201621,15.6018858 L52.2696291,17.5890504 C52.2696291,17.5890504 50.4997559,17.4425077 50.3326241,18.7632135 C50.1653275,20.0822589 49.9228107,22.391057 49.9228107,22.391057 L47.5009368,22.391057 L48.3963328,15.519509 Z" id="Fill-18" fill="#243487" mask="url(#mask-2)"></path>
                <path d="M53.1988358,15.519509 L55.5046399,15.519509 L55.452974,15.747518 C55.452974,15.747518 55.5462582,15.8462308 55.6241139,15.7327352 C55.7052091,15.6187039 56.4218334,15.161347 57.3235436,15.6018858 L57.07334,17.5890504 C57.07334,17.5890504 55.30451,17.4425077 55.1355114,18.7632135 C54.968709,20.0822589 54.7261922,22.391057 54.7261922,22.391057 L52.3045379,22.391057 L53.1988358,15.519509 Z" id="Fill-19" fill="#243487" mask="url(#mask-2)"></path>
                <path d="M43.3964616,20.8141424 C42.9074748,20.7537793 43.0580252,20.0066041 43.0580252,20.0066041 L43.3747191,17.9246901 C43.3747191,17.9246901 43.5646367,17.1554478 44.0741581,17.22422 C44.581648,17.2920282 44.4537735,18.031812 44.4537735,18.031812 C44.4537735,18.031812 44.257487,19.7945563 44.1039717,20.2384158 C43.953586,20.6772407 43.8858328,20.8716669 43.3964616,20.8141424 M46.258841,20.9946964 C46.6436725,20.2771404 46.7921365,18.4746003 46.8116828,17.8665765 C46.8292525,17.3134526 46.7601816,15.2438576 44.4445494,15.2932408 C42.1303997,15.3418206 41.5319317,16.464833 41.207551,17.004031 C40.7662769,17.7311744 40.6528974,20.4733341 40.6528974,20.4733341 C40.7201015,21.2706424 41.3086317,22.638214 43.4211141,22.638214 C45.5362869,22.638214 45.8718134,21.7096815 46.258841,20.9946964" id="Fill-20" fill="#243487" mask="url(#mask-2)"></path>
                <path d="M59.8650013,20.8141424 C59.3773322,20.7537793 59.5280473,20.0066041 59.5280473,20.0066041 L59.8461688,17.9246901 C59.8461688,17.9246901 60.0363059,17.1554478 60.5453881,17.22422 C61.0519996,17.2920282 60.9220387,18.031812 60.9220387,18.031812 C60.9220387,18.031812 60.7272346,19.7945563 60.5734447,20.2384158 C60.4248709,20.6772407 60.3535489,20.8716669 59.8650013,20.8141424 M62.7283141,20.9946964 C63.1129259,20.2771404 63.2651784,18.4746003 63.2815951,17.8665765 C63.2988353,17.3134526 63.2312469,15.2438576 60.9161089,15.2932408 C58.5995434,15.3418206 58.0027225,16.464833 57.6782869,17.004031 C57.2375618,17.7311744 57.1235784,20.4733341 57.1235784,20.4733341 C57.1904531,21.2706424 57.7776106,22.638214 59.8923991,22.638214 C62.0060894,22.638214 62.3430434,21.7096815 62.7283141,20.9946964" id="Fill-21" fill="#243487" mask="url(#mask-2)"></path>
                <path d="M16.4972936,18.5598479 L17.1034663,22.268101 C12.496639,25.1250771 6.9444692,25.6193005 4.06825408,23.5235068 L4.02983624,23.4948704 L4.14419913,23.5736881 L6.62108821,18.5598479 L16.4972936,18.5598479 Z M10.5473097,1.80401252 L0.974295016,19.7929816 L0.974295016,19.7929816 L0.993771263,19.8467368 C-0.613037914,16.3318677 0.186086701,11.8253754 3.52452663,7.34435189 C5.35119301,4.89013545 7.87002132,2.98796644 10.5473097,1.80401252 Z M22.1951378,2.12767644 C26.7610142,5.67318537 26.3440995,11.593253 21.948252,17.7237054 L17.7629425,0.472870391 C19.4307268,0.631916376 20.9590265,1.1676703 22.1951378,2.12767644 Z" id="Combined-Shape" fill="#E53329" mask="url(#mask-2)"></path>
                <path d="M3.52452663,7.34435189 C8.19669538,1.06706259 17.3970711,-1.59866569 22.1951378,2.12767644 C26.8618709,5.75150292 26.3232496,11.855951 21.6511358,18.1302409 C16.978967,24.4031382 8.01029179,26.3959268 4.06825408,23.5235068 C-0.846047154,19.9411365 -1.14928927,13.6177848 3.52452663,7.34435189 Z" id="Stroke-23" stroke="#E53429" stroke-width="0.55" mask="url(#mask-2)"></path>
                <polygon id="Fill-26" fill="#E53329" mask="url(#mask-2)" points="8.99790135 14.6326148 15.8594749 14.6326148 13.8005801 5.12993885"></polygon>
                <polygon id="Stroke-27" stroke="#E53429" stroke-width="0.55" mask="url(#mask-2)" points="8.99790135 14.6326148 15.8594749 14.6326148 13.8005801 5.12993885"></polygon>
                <path d="M33.6258337,8.78333098 C33.6213864,9.04626166 33.469683,9.22986858 33.1025311,9.2057126 C32.7361478,9.18209222 32.7080363,8.82007379 32.9078917,8.50438557 C33.1645192,8.10476735 33.6258337,8.03861958 33.6258337,8.03861958 L33.6258337,8.78333098 Z M33.4930177,5.69248947 C32.0184803,5.69248947 32.1708975,7.08421709 32.1708975,7.08421709 L33.1127983,7.08421709 C33.1127983,7.08421709 33.0577832,6.65331928 33.3274233,6.62953822 C33.6450506,6.60184721 33.6231434,6.79777315 33.6231434,6.79777315 L33.6231434,7.12567326 C33.6231434,7.12567326 33.2759221,7.23188462 32.8092268,7.54934034 C32.3441787,7.86615334 31.6571483,8.53293355 32.1456959,9.53602295 C32.6323767,10.5403442 33.7731996,9.72514665 33.7731996,9.72514665 L33.7731996,9.9986824 L34.7004957,9.9986824 L34.7004957,6.81432348 C34.7004957,6.81432348 34.8139301,5.69248947 33.4930177,5.69248947 L33.4930177,5.69248947 Z" id="Fill-28" fill="#243487" mask="url(#mask-2)"></path>
                <path d="M43.150947,8.78333098 C43.1444682,9.04626166 42.9926,9.22986858 42.626656,9.2057126 C42.261316,9.18209222 42.2324358,8.82007379 42.4321265,8.50438557 C42.686997,8.10476735 43.150947,8.03861958 43.150947,8.03861958 L43.150947,8.78333098 Z M42.9258901,5.69248947 C41.4531645,5.69248947 41.6032757,7.08421709 41.6032757,7.08421709 L42.5468786,7.08421709 C42.5468786,7.08421709 42.4920831,6.65331928 42.7615035,6.62953822 C43.0789112,6.60184721 43.0562902,6.79777315 43.0562902,6.79777315 L43.0562902,7.12567326 C43.0562902,7.12567326 42.7092336,7.23188462 42.2451189,7.54934034 C41.7771059,7.86615334 41.0911737,8.53293355 41.5794467,9.53602295 C42.067006,10.5403442 43.2086525,9.72514665 43.2086525,9.72514665 L43.2086525,9.9986824 L44.1336425,9.9986824 L44.1336425,6.81432348 C44.1336425,6.81432348 44.246473,5.69248947 42.9258901,5.69248947 L42.9258901,5.69248947 Z" id="Fill-29" fill="#243487" mask="url(#mask-2)"></path>
                <path d="M50.6949608,8.78333098 C50.6905135,9.04626166 50.5391395,9.22986858 50.1724268,9.2057126 C49.8058788,9.18209222 49.7789752,8.82007379 49.9770187,8.50438557 C50.2322736,8.10476735 50.6949608,8.03861958 50.6949608,8.03861958 L50.6949608,8.78333098 Z M50.4719354,5.69248947 C48.9982215,5.69248947 49.1488817,7.08421709 49.1488817,7.08421709 L50.0921552,7.08421709 C50.0921552,7.08421709 50.0370852,6.65331928 50.3070547,6.62953822 C50.6262193,6.60184721 50.6009629,6.79777315 50.6009629,6.79777315 L50.6009629,7.12567326 C50.6009629,7.12567326 50.2543455,7.23188462 49.787211,7.54934034 C49.3228767,7.86615334 48.637768,8.53293355 49.1251077,9.53602295 C49.612063,10.5403442 50.7543684,9.72514665 50.7543684,9.72514665 L50.7543684,9.9986824 L51.6796329,9.9986824 L51.6796329,6.81432348 C51.6796329,6.81432348 51.7934517,5.69248947 50.4719354,5.69248947 L50.4719354,5.69248947 Z" id="Fill-30" fill="#243487" mask="url(#mask-2)"></path>
                <path d="M21.3349799,22.3339878 L21.5136968,22.3339878 C21.5991295,22.3339878 21.6573291,22.3217224 21.6884604,22.2971915 C21.7195368,22.2726606 21.735075,22.2402026 21.735075,22.1998177 C21.735075,22.1738942 21.7276079,22.1506487 21.7126188,22.1299742 C21.6976296,22.1095139 21.6768205,22.0941419 21.6502463,22.0840189 C21.6236172,22.0739495 21.5743672,22.0688612 21.5023863,22.0688612 L21.3349799,22.0688612 L21.3349799,22.3339878 Z M21.1877238,22.831087 L21.1877238,21.9510806 L21.4989821,21.9510806 C21.6053338,21.9510806 21.682311,21.9591683 21.729859,21.9754509 C21.7775169,21.9916263 21.8154015,22.0200671 21.8436778,22.0603985 C21.8718991,22.1007835 21.8860647,22.1437394 21.8860647,22.1892126 C21.8860647,22.2534322 21.8624554,22.3093498 21.815127,22.3570191 C21.7677986,22.4046347 21.7050967,22.4313081 21.6268566,22.4370927 C21.6587017,22.4502151 21.6841778,22.4657478 21.7033947,22.4837978 C21.7396322,22.5185053 21.7840506,22.5767796 21.836595,22.6585136 L21.9465155,22.831087 L21.7692811,22.831087 L21.6888997,22.6921499 C21.6255389,22.5833141 21.5749711,22.5149703 21.5370315,22.4872793 C21.5103475,22.4668726 21.4715295,22.4562675 21.4204126,22.4555176 L21.3349799,22.4555176 L21.3349799,22.831087 L21.1877238,22.831087 Z M21.5563582,21.696934 C21.4384216,21.696934 21.3236694,21.7263925 21.2120469,21.7851488 C21.1004793,21.8440123 21.0131249,21.9280494 20.9501485,22.0373673 C20.8870623,22.1466852 20.8556015,22.2603951 20.8556015,22.3787112 C20.8556015,22.4962775 20.8865681,22.6090769 20.9484464,22.7168415 C21.0103796,22.8247668 21.0969104,22.9088039 21.2081486,22.96906 C21.3193868,23.0292625 21.4354567,23.0594173 21.5563582,23.0594173 C21.6772597,23.0594173 21.7932747,23.0292625 21.904458,22.96906 C22.0156962,22.9088039 22.1020622,22.8247668 22.163666,22.7168415 C22.2252149,22.6090769 22.2559619,22.4962775 22.2559619,22.3787112 C22.2559619,22.2603951 22.2246109,22.1466852 22.1620189,22.0373673 C22.0993719,21.9280494 22.0120175,21.8440123 21.9000655,21.7851488 C21.7880587,21.7263925 21.6734713,21.696934 21.5563582,21.696934 L21.5563582,21.696934 Z M21.5563582,21.5606749 C21.6973002,21.5606749 21.8349478,21.595918 21.9693012,21.6662971 C22.1036545,21.7367833 22.2083041,21.8375314 22.2832498,21.9686486 C22.3581956,22.0998194 22.395641,22.2364534 22.395641,22.3787112 C22.395641,22.519523 22.3587446,22.6550322 22.284897,22.7850781 C22.2110493,22.9151241 22.1074979,23.0160329 21.9743525,23.0879117 C21.8411521,23.159737 21.7017475,23.1956228 21.5563582,23.1956228 C21.4108591,23.1956228 21.2715094,23.159737 21.1383091,23.0879117 C21.0051636,23.0160329 20.9013926,22.9151241 20.8271606,22.7850781 C20.7530384,22.6550322 20.7159224,22.519523 20.7159224,22.3787112 C20.7159224,22.2364534 20.7535325,22.0998194 20.8288626,21.9686486 C20.9041378,21.8375314 21.009007,21.7367833 21.1433054,21.6662971 C21.2776588,21.595918 21.4153064,21.5606749 21.5563582,21.5606749 L21.5563582,21.5606749 Z" id="Fill-31" fill="#E53329" mask="url(#mask-2)"></path>
                <path d="M63.9393115,23.026563 L64.1180832,23.026563 C64.203461,23.026563 64.2616606,23.0142976 64.2927919,22.9897666 C64.3238684,22.9652357 64.3394066,22.9327778 64.3394066,22.8923928 C64.3394066,22.8664693 64.3319394,22.8432239 64.3170052,22.8225494 C64.3019611,22.8020891 64.2812069,22.7867171 64.2545778,22.7765941 C64.2280037,22.7665246 64.1786987,22.7614363 64.1067727,22.7614363 L63.9393115,22.7614363 L63.9393115,23.026563 Z M63.7920554,23.5236622 L63.7920554,22.6436558 L64.1033137,22.6436558 C64.2096653,22.6436558 64.2866425,22.6517435 64.3342455,22.668026 C64.3819033,22.6842014 64.4197331,22.7126423 64.4480642,22.7529737 C64.4762306,22.7933587 64.4903962,22.8363145 64.4903962,22.8817878 C64.4903962,22.9460074 64.4667869,23.001925 64.4194585,23.0495942 C64.372185,23.0972099 64.3094283,23.1238833 64.2311882,23.1296678 C64.2630333,23.1427903 64.2885093,23.1583229 64.3077811,23.176373 C64.3439637,23.2110805 64.388437,23.2693548 64.4409814,23.3510888 L64.5509019,23.5236622 L64.3736126,23.5236622 L64.2932312,23.3847251 C64.2299253,23.2758892 64.1793026,23.2075455 64.1413631,23.1798544 C64.114734,23.1594477 64.075861,23.1488427 64.024799,23.1480928 L63.9393115,23.1480928 L63.9393115,23.5236622 L63.7920554,23.5236622 Z M64.1606897,22.3895091 C64.042808,22.3895091 63.9280559,22.4189676 63.8164333,22.477724 C63.7048108,22.5365875 63.6175113,22.6206246 63.55448,22.7299425 C63.4913938,22.8392604 63.459988,22.9529703 63.459988,23.0712864 C63.459988,23.1888527 63.4908997,23.301652 63.5528329,23.4094167 C63.6147661,23.517342 63.701242,23.6013791 63.8125351,23.6616352 C63.9237732,23.7218377 64.0397882,23.7519925 64.1606897,23.7519925 C64.2815913,23.7519925 64.3976611,23.7218377 64.5088444,23.6616352 C64.6200277,23.6013791 64.7063938,23.517342 64.7680524,23.4094167 C64.8296013,23.301652 64.8603483,23.1888527 64.8603483,23.0712864 C64.8603483,22.9529703 64.8289425,22.8392604 64.7663504,22.7299425 C64.7037034,22.6206246 64.616349,22.5365875 64.5043971,22.477724 C64.3923902,22.4189676 64.2778028,22.3895091 64.1606897,22.3895091 L64.1606897,22.3895091 Z M64.1606897,22.2532501 C64.3016866,22.2532501 64.4392794,22.2884932 64.5736876,22.3588723 C64.7080409,22.4293585 64.8126356,22.5301066 64.8875813,22.6612238 C64.962582,22.7923946 64.9999725,22.9290285 64.9999725,23.0712864 C64.9999725,23.2120981 64.9630762,23.3476073 64.8892285,23.4776533 C64.8154357,23.6076993 64.7118294,23.7086081 64.578684,23.7804869 C64.4454837,23.8523121 64.3061339,23.888198 64.1606897,23.888198 C64.0152455,23.888198 63.8758409,23.8523121 63.7426406,23.7804869 C63.6095501,23.7086081 63.505779,23.6076993 63.431547,23.4776533 C63.3573699,23.3476073 63.3202539,23.2120981 63.3202539,23.0712864 C63.3202539,22.9290285 63.357864,22.7923946 63.4331942,22.6612238 C63.5085243,22.5301066 63.6133385,22.4293585 63.7476919,22.3588723 C63.8820452,22.2884932 64.0196379,22.2532501 64.1606897,22.2532501 L64.1606897,22.2532501 Z" id="Fill-32" fill="#243487" mask="url(#mask-2)"></path>
            </g>
        </g>
    </g>
</svg>