<svg height="50" viewBox="0 0 110 50" width="110" xmlns="http://www.w3.org/2000/svg"><g fill="#fff" transform="translate(19 17)"><path d="m34.98.5h-1.98l-4.47 9.57-4.53-9.57h-6v12.69l-5.76-12.69h-5.7l-6.54 15h4.47l1.35-3.33h7.02l1.44 3.33h7.47v-10.83l5.01 10.83h3.63l4.59-9.93v9.93h4.02v-15zm-27.75 8.25 2.01-4.98 2.13 4.98z"/><path d="m72 .5h-5.28l-4.26 4.5-4.17-4.5h-16.53v15h16.2l4.44-4.74 4.32 4.74h5.28l-6.93-7.5zm-18 13.5v-1.95h-8.37v-2.37h8.37v-3.39h-8.37v-2.37h8.37v-2.25l5.79 6.33z"/></g></svg>