<svg height="50" viewBox="0 0 110 50" width="110" xmlns="http://www.w3.org/2000/svg"><g fill="none" transform="translate(14 16)"><g fill="#fff"><path d="m24.961755 5.76121c.195195-.03276.49595-.070525 1.052415-.070525 1.045135 0 1.664845.329875 1.664845 1.0556 0 .685685-.621985 1.131585-1.9201 1.131585h-.79716zm-2.224495 7.86149c.498225.071435 1.34316.14742 2.524795.14742 1.99563 0 3.202745-.29302 3.945305-.838565.638365-.46683 1.08836-1.165255 1.08836-2.0657 0-1.27855-.880425-2.074345-1.96105-2.35417v-.03003c1.11202-.39039 1.622985-1.177085 1.622985-2.00837 0-.93639-.555555-1.59159-1.27309-1.91919-.71344-.354445-1.49422-.48867-2.94931-.48867-1.16935 0-2.43516.101465-2.997995.210665zm2.224495-4.15506h.847665c1.18573 0 2.109835.341705 2.109835 1.293565 0 1.013285-.942305 1.36136-1.99199 1.36136-.43407 0-.730275 0-.96551-.03549z"/><path d="m77.993825 13.66365-.74802-1.22668c-.26572-.436345-.537355-.92092-.67704-1.201655-.12831.280735-.424515.781235-.676585 1.201655l-.743925 1.22668h-2.32141l2.6299-4.00673-2.23132-3.4034h2.31231l.354445.604695c.26845.437255.53417.92183.676585 1.199835.139685-.278005.425425-.76258.67704-1.199835l.358085-.604695h2.308215l-2.22677 3.4034 2.627625 4.00673z"/><path d="m35.676095 11.48784c-.21385.35581-.720265.67977-1.356355.67977-.83265 0-1.12749-.467285-1.12749-.98735 0-.59423.39949-.92911 1.159795-.92911.753025 0 1.214395.254345 1.32405.30394zm1.95104 2.17581v-4.96951c0-1.663025-1.18482-2.601235-3.1304-2.601235-1.45145 0-2.405585.598325-2.661295.75621l.74893 1.349075c.16107-.08554.86814-.514605 1.86459-.514605.874055 0 1.227135.426335 1.227135.942305v.39676c-.1729-.07735-.63791-.30121-1.510145-.30121-1.55428 0-2.92292.82264-2.92292 2.45882 0 1.791335 1.36864 2.639 2.69178 2.639 1.045135 0 1.587495-.520065 1.741285-.648375v.492765z"/><path d="m51.12926 11.48784c-.208845.35581-.716625.67977-1.35499.67977-.831285 0-1.127035-.467285-1.127035-.98735 0-.59423.400855-.92911 1.160705-.92911.750295 0 1.216215.254345 1.32132.30394zm1.948765 2.17581v-4.96951c0-1.663025-1.17754-2.601235-3.126305-2.601235-1.45236 0-2.40604.598325-2.659475.75621l.750295 1.349075c.15834-.08554.863135-.514605 1.85913-.514605.879515 0 1.22759.426335 1.22759.942305v.39676c-.17017-.07735-.631995-.30121-1.508325-.30121-1.5561 0-2.924285.82264-2.924285 2.45882 0 1.791335 1.368185 2.639 2.692235 2.639 1.04923 0 1.5925-.520065 1.740375-.648375v.492765z"/><path d="m43.63359 13.66365v-4.21876c0-1.18846-.61971-1.51242-1.258075-1.51242-.60606 0-1.270815.355355-1.270815 1.46874v4.26244h-1.94376v-7.41013h1.94376v.4914c.15652-.14105.71071-.652015 1.793155-.652015 1.547 0 2.68359.82719 2.68359 2.867865v4.70288z"/><path d="m63.282765 13.66365v-4.13595c0-1.179815-.432705-1.59523-1.18482-1.59523-.642915 0-1.20393.39403-1.20393 1.556555v4.174625h-1.947855v-4.13595c0-1.156155-.441805-1.59523-1.18664-1.59523-.68796 0-1.200745.39949-1.200745 1.556555v4.174625h-1.94103v-7.41013h1.94103v.4914c.142415-.12012.74256-.652015 1.77359-.652015 1.238965 0 1.781325.804895 1.90099.94913.123305-.108745.923195-.94913 2.298205-.94913 1.562015 0 2.69906.933205 2.69906 2.91564v4.655105z"/><path d="m70.875805 9.122295h-2.54436c.03458-.59514.390845-1.328145 1.26126-1.328145.873145 0 1.227135.664755 1.2831 1.328145zm1.93648.84266c0-2.28137-1.18664-3.87205-3.163615-3.87205-1.878695 0-3.303755 1.597505-3.303755 3.87205 0 2.34507 1.354535 3.854305 3.48894 3.854305.985985 0 2.061605-.434525 2.65174-1.20029l-1.16116-1.09382c-.099645.10465-.565565.64246-1.476475.64246-.800345 0-1.46874-.56511-1.53972-1.58158h4.47356c.01638-.143325.030485-.33488.030485-.621075z"/></g><path d="m6.47283 12.42605c-.31304.18109-.75621.39494-1.2649.59423.55692.537355 1.86368 1.6016 3.81472 1.6016.43134 0 .583765-.223405.583765-.464555 0-.328055-.322595-.50323-.823095-.656565-.640185-.19656-1.72809-.458185-1.72809-1.290835 0-.084175.013195-.162435.038675-.23387-.181545.19747-.405405.322595-.621075.449995zm5.93866-8.033935c-.24115 0-.4277.21385-.4277.43862 0 .217035.140595.46592.361725.7644.31031.401765.803985 1.000545.803985 1.55701 0 .346255-.20657.58149-.336245.666575.11011-.023205.22022-.02457.3276-.02457.396305 0 1.094275.10192 1.81454.285285-.13923-.75348-.56784-2.38875-2.14214-3.53262-.152425-.116935-.288015-.1547-.401765-.1547zm-.707525 8.3174c.07553.351715.1365.835835.175175 1.383655.47411-.260715 1.30585-.786695 1.98562-1.712165.488215-.720265.761215-1.399125.761215-1.690325 0-.32851-.270725-.45682-.44863-.45682-.24752 0-.481845.24115-.740285.61061-.3822.54236-.97279 1.494675-1.759485 1.242605-.080535-.02457-.15379-.06643-.21567-.11102.134225.22932.185185.485485.24206.73346zm-.288925-3.101735c.31941-.995085.68978-1.456 1.06743-1.664845-.48412.05915-1.16935-.252525-1.93648-.812175-.84448-.61061-1.17026-1.10656-1.250795-1.526525-.09191.48048-.60333 1.036035-1.36682 1.5925-.84539.61061-1.41778.770315-1.84184.714805.429975.23387.796705.89544 1.087905 1.794975.17472.527345.25116.951405.25116 1.28037 0 .2912-.05096.51597-.1365.68887.35945-.33033 1.096095-.4823 2.040675-.4823 1.04741 0 1.60069.21203 1.915095.50596-.08008-.166985-.11375-.381745-.11375-.623805 0-.399035.100555-.906815.28392-1.46783zm.536445 6.63663c0 1.56611-1.73719 1.682135-2.729545 1.682135-.932295 0-2.084355-.177905-2.9757-.591045-1.06834-.48867-1.3923-.974155-1.3923-2.24315 0-.659295.04459-1.483755.07735-1.956955-.54964.218855-1.155245.43134-1.747655.61971-1.48785.49049-2.138045-1.131585-2.44335-2.07298-.288015-.882245-.392665-1.749475-.392665-2.446535 0-1.635725.511875-2.185365 1.73992-2.58622.62699-.201565 1.420965-.41132 1.883245-.53144-.37674-.451815-.76895-.961415-1.13204-1.468285-.21749-.297115-.31122-.59332-.31122-.871325 0-.90181.92001-1.650285 1.527435-2.093455.75621-.545545 2.21767-1.36136 3.48348-1.36136.699335 0 1.149785.307125 1.722175 1.087905.38675.52871.83356 1.23032 1.08563 1.62617.31577-.495495.68068-1.03012 1.0465-1.53062.334425-.45591.744835-.630175 1.16207-.630175.751205 0 1.525615.511875 2.035215.8736.75439.55146 1.583855 1.372735 2.06206 2.23496.26663.46774.40495.84539.40313 1.218035-.00091.435435-.193375.85995-.597415 1.41232-.38493.53326-.906815 1.169805-1.21121 1.53608.57421.14742 1.188915.32851 1.77905.5187.81627.26754 1.05833.898625 1.05833 1.56338 0 1.30858-.863135 3.211845-1.78178 4.209205-.525525.561925-.94549.82537-1.51879.82537-.298935 0-.637-.062335-1.047865-.200655-.628355-.19838-1.39412-.496405-1.834105-.6734.037765.590135.05005 1.227135.05005 1.85003zm-2.60351-13.01118c-.87724 0-2.049775.196105-3.185 1.00828-.217945.158795-.294385.32396-.294385.45773 0 .133315.108745.450905.493675.450905.54327 0 1.27218-.476385 2.02111-.476385.700245 0 .873145.50323.89635.58058.02639-.32578.312585-1.02284.90818-1.95923-.215215-.03458-.50414-.06188-.83993-.06188zm-5.18518 3.118115c-.331695.69615-.944125 2.26408-.34216 4.11957.13468.41132.39221.48958.62426.41132.31122-.10192.37856-.460005.368095-.982345-.013195-.674765-.092365-1.78815.689325-2.042495.082355-.030485.16471-.04459.24206-.040495-.36764-.1547-.905905-.682955-1.58158-1.465555z" fill="#d8232a"/></g></svg>