<svg height="50" viewBox="0 0 110 50" width="110" xmlns="http://www.w3.org/2000/svg" xmlns:xlink="http://www.w3.org/1999/xlink"><mask id="a" fill="#fff"/><mask id="b" fill="#fff"><path d="m.00144.0133256h64.68912v19.3786721h-64.68912z" fill="#fff" fill-rule="evenodd"/></mask><mask id="c" fill="#fff"><path d="m.00144.0133256h64.68912v19.3786721h-64.68912z" fill="#fff" fill-rule="evenodd"/></mask><mask id="d" fill="#fff"><path d="m.00144.0133256h64.68912v19.3786721h-64.68912z" fill="#fff" fill-rule="evenodd"/></mask><mask id="e" fill="#fff"><path d="m.00144.0133256h64.68912v19.3786721h-64.68912z" fill="#fff" fill-rule="evenodd"/></mask><g fill="#004481" fill-rule="nonzero"><path d="m33.66096 2.46924c-.42144 0-.84288-.000072-1.26432.000072-.0408 0-.08184-.00192-.12216.00252-.12144.013344-.21024.1074-.20304.22956.0036.06036.0264.123624.0552.177888.29856.56436.6 1.127256.90096 1.69044 2.52024 4.71732 5.04072 9.434592 7.56096 14.151864.08976.167736.17616.33732.27048.502344.08976.156792.26712.209136.42168.134712.0828-.039792.12768-.111072.16872-.188328.45408-.851112.90864-1.701792 1.36344-2.55252 2.18328-4.086216 4.36656-8.172384 6.55008-12.258552.2688-.50328.53616-1.007448.80784-1.50924.11424-.21132-.04176-.384768-.21504-.38355681-.8928.00637281-1.78536.00325281-2.67816.00270081-.1356-.000072-.234.059304-.29856.176736-.02832.051576-.05496.10404-.08232.156144-1.81128 3.447744-3.62256 6.895464-5.43384 10.343088-.02328.044016-.0444.090072-.0744.129216-.13176.172296-.38472.170592-.51504-.003-.02712-.035904-.04752-.077016-.06864-.117-.29304-.557064-.58584-1.114344-.87888-1.671504-1.54032-2.930064-3.08136-5.85996-4.62024-8.791032-.0804-.153576-.19104-.226752-.36672-.224376-.426.005736-.852.001872-1.278.001824" mask="url(#a)" transform="translate(23 15)"/><path d="m63.10224 16.93632c.41688 0 .83376.000072 1.25088-.000072.04056 0 .08184.001704.12216-.002496.16032-.016824.25416-.164016.19992-.31524-.0168-.046464-.04224-.090072-.06552-.133872-1.13112-2.117256-2.262-4.23432-3.39312-6.351384-1.75848-3.29148-3.51696-6.582936-5.27568-9.874392-.0192-.035952-.03696-.073104-.06-.106464-.12672-.183-.39144-.186-.52176-.005448-.02616.036456-.0456.078096-.06696.118008-1.19328 2.232696-2.38656 4.46544-3.5796 6.698304-1.6968 3.175512-3.39336 6.35112-5.09016 9.526728-.0192.035952-.03984.071352-.05568.10884-.06744.160752.02688.319512.1992.335424.04056.003696.0816.002064.1224.002064.51192.000072 1.02408 0 1.53624 0 .33072 0 .66168-.006456.9924.002472.19296.005208.32184-.068664.39528-.244464.00192-.004152.00432-.007992.00648-.012 1.47192-2.802504 2.94384-5.605104 4.41576-8.407584.36-.685536.72192-1.370304 1.08024-2.056656.06624-.126864.15864-.211944.3048-.214008.1524-.00216.25152.083472.31656.216768.04776.097656.10056.192744.1512.288936 1.78488 3.395064 3.57048 6.78984 5.35272 10.186344.0888.169032.20616.24612.39792.242592.4212-.007608.84288-.0024 1.26432-.0024" mask="url(#b)" transform="translate(23 15)"/><path d="m5.830368 4.911792c0-.000528 0-.001032 0-.001536-.865152 0-1.730424.00708-2.595456-.003816-.309288-.003888-.443904.14088-.44170306.439368.00900706 1.191216.00370306 2.3826.00384706 3.573864 0 .045288-.001152.09084.00348.13572.016488.158328.132456.27468.290928.293136.031368.003648.063312.002856.095016.002856 1.612536.00012 3.22512.00168 4.83768-.000816.4686-.000744.930648-.05724 1.374144-.21816.548064-.198888.972072-.541992 1.202832-1.088016.24552-.58092.284424-1.18644.147-1.797696-.094944-.42216-.34536-.74364-.725616-.955488-.114072-.063504-.23448-.118728-.357312-.162984-.448392-.161544-.916464-.21144-1.388832-.2148-.815304-.005832-1.63068-.001632-2.446008-.001632zm.040368 12.030816c.76104 0 1.52208-.00108 2.283096.0004713.390168.0007767.778272-.0231513 1.163184-.0876153.385632-.064584.75948-.168168 1.108032-.350712.57936-.303384.952224-.768624 1.095144-1.409952.124536-.558744.10416-1.116696-.043368-1.6674-.15444-.576504-.510168-.993288-1.052736-1.241424-.180096-.082392-.369744-.149256-.561096-.20028-.568392-.151512-1.151544-.189312-1.73664-.190464-1.630824-.003144-3.2616-.001056-4.8924-.001056-.031704 0-.063456-.00084-.095112.000288-.203424.007056-.329208.1254-.346104.326496-.003024.036048-.00246222.072408-.00246222.108648 0 1.431504-.00015378 2.862984.00047022 4.294416.000024.05412.0018.109296.01224.162096.027624.14016.140064.239952.281904.253824.044928.00444.090528.002616.135816.002616.88332.000096 1.766688.000048 2.650032.000048zm5.88288-6.664224c.038976.017184.0618.028368.085392.037584 1.154856.450024 1.911984 1.277544 2.30652 2.443296.214944.63504.269424 1.291056.230544 1.957776-.028056.481176-.09732.954792-.23952 1.416048-.369552 1.198944-1.134648 2.053488-2.262888 2.589384-.543576.258144-1.117512.418296-1.708752.521376-.626664.10932-1.258632.1463481-1.893912.1463481-2.600976-.0009801-5.201952-.0004521-7.802928-.0005241-.054384 0-.108936.001944-.16308-.001656-.172368-.011448-.282456-.119568-.2994-.293208-.00396-.040488-.003456-.081504-.003456-.122232-.000144-5.360544-.000096-10.721088-.000096-16.081584 0-.004536.000288-.00912-.000048-.013608-.021408-.273576.131664-.4122.407424-.41162756 2.76408.00566756 5.528208.00261956 8.292288.00396356.876576.000432 1.72116.160368 2.511504.549624 1.089096.536376 1.853112 1.36644 2.206896 2.538696.285456.945936.272904 1.895832-.06024 2.830584-.282528.792648-.779712 1.413768-1.520448 1.82916-.025656.0144-.04836.033912-.0858.0606z" mask="url(#c)" transform="translate(23 15)"/><path d="m23.34096 4.911816c0-.000504 0-.001056 0-.00156-.8652 0-1.730352 0-2.595528.000024-.040752 0-.081624-.001368-.12228.00096-.178656.01032-.302448.134136-.312648.312744-.002328.04068-.001008.081528-.001008.122304-.000048 1.191312-.000072 2.382648-.000048 3.573936 0 .040776-.00132.081648.001512.122256.01128.165336.127176.28776.291744.305952.04932.005496.099552.00312.149352.00312 1.481232.00012 2.96244.001272 4.443624-.001008.26232-.000408.52512-.00948.78696-.0252.32232-.019272.63672-.085416.93984-.19752.60216-.222816 1.03704-.619488 1.2504-1.2348.17256-.497976.20352-1.010928.11424-1.527744-.06792-.393312-.25752-.721992-.58296-.96408-.16104-.11988-.33864-.208272-.52776-.274512-.44976-.157608-.91704-.209736-1.38936-.213216-.81528-.005976-1.6308-.001656-2.44608-.001656zm.043368 12.030792c.715752 0 1.431432-.001392 2.147112.000624.37176.00096.74256-.009048 1.1112-.059448.41448-.056688.81888-.150984 1.1988-.331224.60792-.288384 1.01856-.747552 1.17792-1.407576.14424-.597648.1224-1.196568-.05256-1.78512-.15336-.516552-.47688-.902352-.9624-1.137624-.20232-.097992-.41688-.177216-.63384-.236376-.55872-.152256-1.13328-.189216-1.70928-.190488-1.6488-.0036-3.29772.00144-4.946568-.0043521-.225888-.0007599-.433848.1070001-.411936.4143201.000624.008976 0 .018096 0 .027144 0 1.426896-.000096 2.853792.000336 4.280736 0 .054168-.00024.109272.00876.162312.024912.146976.139104.251016.28668.264576.044976.00408.090504.002448.135792.002448.88332.000096 1.76664.000096 2.649984.000048zm5.879592-6.664296c.03504.015264.05376.024216.0732.031704 1.18992.463176 1.95816 1.319256 2.34456 2.526648.18144.567072.23424 1.152072.21192 1.744584-.02016.526848-.09 1.046376-.24624 1.551912-.3624 1.172808-1.10328 2.02032-2.20176 2.559648-.56136.275472-1.15608.444096-1.76976.550992-.61776.107592-1.24056.1462085-1.86672.1462085-2.614632-.0006725-5.229192-.0002165-7.8438-.0003845-.058824 0-.118128.001752-.176472-.004512-.143736-.015648-.249048-.119712-.268488-.263592-.0058967-.044664-.00564-.090336-.00564-.1356-.0002567-5.369592-.0002567-10.739184-.0002567-16.108776 0-.040752-.0007513-.081816.0034967-.122184.01704-.162456.13236-.273552.293976-.284376.036096-.002448.07248-.001248.108744-.001248 2.76408-.000048 5.528184-.00072 8.29236.000336.83424.000312 1.6404.146976 2.4012.497328 1.00704.463752 1.75728 1.186416 2.18712 2.219808.24216.581592.33552 1.19052.32136 1.818912-.01224.554304-.11352 1.089144-.33504 1.598136-.3024.694392-.77064 1.242864-1.43736 1.613928-.02568.014328-.04848.033744-.0864.060528z" mask="url(#d)" transform="translate(23 15)"/><path d="m33.66096 2.469264c.426.000024.852.003888 1.278-.001848.17568-.002376.28632.0708.36672.224376 1.53888 2.931072 3.07992 5.860968 4.62024 8.791032.29304.55716.58584 1.11444.87888 1.671504.02112.039984.04152.081096.06864.117.13032.173592.38328.175296.51504.003.03-.039144.05112-.0852.0744-.129216 1.81128-3.447624 3.62256-6.895344 5.43384-10.343088.02736-.052104.054-.104568.08232-.156144.06456-.117432.16296-.176808.29856-.176736.8928.000552 1.78536.003672 2.67816-.00270081.17328-.00121119.32928.17223681.21504.38355681-.27168.501792-.53904 1.00596-.80784 1.50924-2.18352 4.086168-4.3668 8.172336-6.55008 12.258552-.4548.850728-.90936 1.701408-1.36344 2.55252-.04104.077256-.08592.148536-.16872.188328-.15456.074424-.33192.02208-.42168-.134712-.09432-.165024-.18072-.334608-.27048-.502344-2.52024-4.717272-5.04072-9.434544-7.56096-14.151864-.30096-.563184-.6024-1.12608-.90096-1.69044-.0288-.054264-.0516-.117528-.0552-.177888-.0072-.12216.0816-.216216.20304-.22956.04032-.00444.08136-.00252.12216-.00252.42144-.000144.84288-.000072 1.26432-.000048" mask="url(#e)" transform="translate(23 15)"/></g></svg>