<svg height="50" viewBox="0 0 110 50" width="110" xmlns="http://www.w3.org/2000/svg"><g fill="none" fill-rule="evenodd"><path d="m10.02114 8.0754c0 3.10905-2.03364 6.66225-6.33528 6.66225-2.268 0-3.402-.9828-3.402-2.67813 0-.58968.09639-1.17369.21357-1.7388l1.93725-9.68058h2.83311l-1.13211 5.46021h.03969c.70308-.84105 1.77849-1.35513 2.95218-1.35513 1.99584.00567 2.89359 1.62918 2.89359 3.33018zm-2.95407.5859c0-.91665-.39123-1.64241-1.24929-1.64241-1.01871 0-2.01285 1.03761-2.34738 2.70081l-.17577.78246c-.03969.31374-.11718.64638-.09828 1.0584.0189.6804.42903 1.05462 1.07541 1.05462 1.6254-.00567 2.79531-2.27178 2.79531-3.95388zm3.7233 5.86656h2.8161l1.81818-9.5634h-2.8161zm3.83292-13.72329c-.86184 0-1.6065.64638-1.62351 1.60272 0 .83916.5859 1.37025 1.36647 1.37025.90153 0 1.6613145-.58779 1.6613145-1.58382.0018855-.84483-.5859045-1.38915-1.4042745-1.38915zm6.7662 1.48365-2.87469.66906-.39123 2.00907h-1.23228l-.39123 2.13192h1.21338l-.74466 3.81402c-.13608.72576-.19467 1.25118-.19467 1.77849 0 1.19259.80325 2.05254 2.48346 2.05254.6048 0 1.30599-.07938 1.66131-.21357l.33642-2.2113c-.25704.03969-.52731.03969-.78246.03969-.60858 0-.80514-.33642-.80514-.80514 0-.33264.07749-.82404.15687-1.21338l.64827-3.24702h2.02986l.41391-2.13192h-2.03364zm1.61028 8.52768c0 2.47968 1.66131 3.90663 4.02381 3.90663 1.13778 0 2.11491-.19656 2.71782-.48951l-.0189-2.15271c-.4914.19656-1.07541.39123-1.89567.39123-1.0584 0-1.87677-.66717-1.87677-1.97694 0-1.7955 1.2285-3.50028 3.24513-3.50028.56889 0 .96012.09828 1.29276.23436l.68229-2.15082c-.41013-.17766-1.1151-.33642-1.93347-.33642-3.63825.00945-6.237 2.67057-6.237 6.07446zm18.08541-2.13381c0 3.50028-2.38329 6.06123-5.70969 6.06123-2.42109 0-4.04838-1.58382-4.04838-3.95199 0-3.32262 2.3058-6.04044 5.70969-6.04044 2.56473 0 4.04838 1.75959 4.04838 3.9312zm-2.91249.01701c0-.87885-.36855-1.81629-1.50444-1.81629-1.62162 0-2.44188 2.36628-2.4192 3.84993 0 1.1151.54621 1.8578712 1.52523 1.8578712 1.54224.0018888 2.39841-2.2472112 2.39841-3.8915112zm7.58835-7.89453c-.85995 0-1.60461.64638-1.61973 1.60272 0 .83916.58968 1.37025 1.37025 1.37025.90342 0 1.6613145-.58779 1.6613145-1.58382.0018855-.84483-.5877945-1.38915-1.4118345-1.38915zm-3.82725 13.72329h2.81232l1.82196-9.5634h-2.8161zm12.61197-9.77697c-1.27197 0-2.46267.5481-3.36042 1.79928h-.03969l.19656-1.58382h-2.49858c-.11907.84294-.27594 1.89756-.51219 3.11094l-1.21527 6.45246h2.8161l.80136-4.24494c.39123-2.10546 1.46853-3.26592 2.38896-3.26592.70497 0 .93933.47061.93933 1.13589 0 .35532-.03969.74655-.10206 1.07541l-.99414 5.29956h2.81421l1.0584-5.55282c.07749-.46872.15687-1.1907.15687-1.61595-.00378-1.65186-.88452-2.61009-2.44944-2.61009z" fill="#fff" fill-rule="nonzero" transform="translate(36 19)"/><path d="m26.59572 16.5481c4.74957 0 8.5995 3.84615 8.5995 8.59761s-3.84993 8.59761-8.5995 8.59761c-4.74768 0-8.59572-3.84615-8.59572-8.59761s3.84804-8.59761 8.59572-8.59761zm-.7371 3.35664-.23058 1.22283-1.91835-.3591-.19089 1.02627.29295.05481c.19656.03402.32508.07749.38556.12663.06426.04536.10206.10395.11907.1701s.00567.2079-.03591.43092l-.7749 4.13532c-.03969.21546-.07749.35343-.11907.40824s-.09828.09639-.17388.11718-.20979.01323-.40446-.02835l-.29484-.04914-.19089 1.02249 1.91646.35532-.2268 1.22094 1.25685.23625.2268-1.22094.71442.1323c.03213.00756.06048.00945.09261.01701l-.2268 1.22094 1.25496.23247.24948-1.32111c.21735-.00378.41202-.02268.58401-.05103.46683-.09261.84861-.2835 1.14912-.57267.29862-.2835.48573-.6237.55755-1.01871.06237-.33264.03969-.64638-.06615-.93744-.10773-.29862-.27972-.54621-.51786-.74655-.16254-.13986-.41202-.28728-.74088-.43848.34398-.05103.62937-.13986.85806-.27405.23058-.1323.41769-.29862.56133-.50085.14553-.20034.24381-.42525.28728-.66906.06804-.3213.02835-.65394-.11718-.97335-.14553-.31752-.39123-.5859-.72954-.80703-.12852-.08694-.29295-.16254-.4725-.23247l.24381-1.30599-1.25496-.23625-.23058 1.22094-.80703-.1512.23058-1.22094zm-.19845 5.46966.96201.17766c.42147.08127.72765.17955.91665.29295.19089.1134.3213.26082.3969.43092.07371.17388.08694.36477.04914.58968-.04914.26082-.16254.46494-.34209.6237-.18144.15309-.378.2457-.59535.26649-.21924.02079-.48573 0-.79947-.0567l-.54243-.10584c-.17955-.03591-.28728-.06237-.32697-.09072-.0378-.02646-.05859-.06426-.06804-.11718-.00378-.03969.01134-.17955.04914-.40446zm.54243-2.90304.8127.15309c.47628.08883.80136.17955.97146.27405.17766.09072.29862.21735.36666.37044.07182.15876.09072.33075.05292.52731-.03402.189-.11907.34965-.2457.46872-.1323.12285-.3024.20034-.51975.23625-.21735.03402-.53865.00945-.9639-.06804l-.81459-.15309z" fill="#f8931f"/></g></svg>