<?xml version="1.0" encoding="UTF-8"?>
<svg width="110px" height="50px" viewBox="0 0 110 50" version="1.1" xmlns="http://www.w3.org/2000/svg" xmlns:xlink="http://www.w3.org/1999/xlink">
    <title>chedrahui-f</title>
    <g id="chedrahui-f" stroke="none" stroke-width="1" fill="none" fill-rule="evenodd">
        <g id="Chedraui" transform="translate(26.000000, 2.000000)">
            <polyline id="Fill-1" fill="#E9823F" points="27.7577618 26.7420536 21.6318429 33.9102416 25.5840225 33.9102416 31.1142676 27.4211056 36.8449453 33.9102416 40.7010541 33.882574 34.3748186 26.7420536 27.7577618 26.7420536"></polyline>
            <polyline id="Fill-2" fill="#E9823F" points="21.0366331 24.2264645 12.8640643 33.8894624 17.8326693 33.8894624 26.0898291 24.2264645 21.0366331 24.2264645"></polyline>
            <polyline id="Fill-3" fill="#E9823F" points="39.6773812 22.7542744 43.7114268 30.7179915 50.3963187 30.7179915 50.3963187 25.9309259 42.9040147 25.9252899 41.1821038 22.7458489 39.6773812 22.7542744"></polyline>
            <polyline id="Fill-4" fill="#E9823F" points="29.5349844 15.7016528 34.9071795 21.9440006 39.1332507 21.9440006 33.7836093 15.7016528 29.5349844 15.7016528"></polyline>
            <polyline id="Fill-5" fill="#E9823F" points="29.5349844 16.6679697 29.5349844 23.1597245 26.1784786 25.9677591 34.3763841 25.9677591 34.4245064 22.4169118 29.5349844 16.6679697"></polyline>
            <polyline id="Fill-6" fill="#E9823F" points="11.9897448 28.8765584 7.67908262 33.8909995 11.5493382 33.8909995 15.9334594 28.8765584 11.9897448 28.8765584"></polyline>
            <polyline id="Fill-7" fill="#003D6E" points="40.2757219 41.9815549 43.0054195 38.0573088 44.3828207 38.0573088 47.0619028 41.9815549 47.6811738 41.9815549 44.5471325 37.6103004 42.8663285 37.6103004 39.7575659 41.9815549 40.2757219 41.9815549"></polyline>
            <polyline id="Fill-8" fill="#E9823F" points="11.9843527 20.5591969 17.3057005 26.9762036 19.5161403 24.5008634 16.1905951 20.5425736 11.9843527 20.5591969"></polyline>
            <polyline id="Fill-9" fill="#E9823F" points="21.6682536 13.7367972 27.3254722 20.5586276 28.5732909 20.5613602 28.5732909 16.8331214 25.9676099 13.7257529 21.6682536 13.7367972"></polyline>
            <path d="M48.5065014,40.5939048 C48.5065014,41.3389946 49.0877963,41.984743 49.8586238,41.984743 L53.9405018,41.984743 C54.6608298,41.984743 55.3306003,41.4879784 55.3306003,40.7553561 L55.3306003,37.6134315 L54.7492474,37.6134315 L54.7492474,40.730478 C54.7492474,41.1403685 54.4460185,41.500389 54.016396,41.500389 L49.8586238,41.500389 C49.4163039,41.500389 49.075157,41.1279579 49.075157,40.6931894 L49.075157,37.6134315 L48.5065014,37.6134315 L48.5065014,40.5939048" id="Fill-10" fill="#003D6E"></path>
            <path d="M39.0257581,40.6216862 C39.0257581,40.2492552 38.9121197,40.1374462 38.8235862,40.1002144 L38.7351106,40.0629827 L38.8488649,39.9884623 C39.0510368,39.8518322 39.0257581,39.5165759 39.0257581,39.4794011 L39.0257581,38.7713153 C39.0257581,38.1380344 38.4949626,37.6165626 37.8505868,37.6165626 L32.302832,37.6165626 L32.302832,41.9752927 L32.8714876,41.9629391 L32.8714876,38.0759816 L37.7115537,38.0759816 C38.1158395,38.0759816 38.4696839,38.3864167 38.4696839,38.7961364 L38.4696839,39.5042223 C38.4696839,39.7027914 38.3686849,39.9512306 38.2548726,40.0132266 L38.166513,40.0629827 L38.2422332,40.1250356 C38.3559875,40.2243771 38.4445211,40.3361292 38.4445211,40.6216862 L38.4445211,41.9629391 L39.0257581,41.9629391 L39.0257581,40.6216862" id="Fill-11" fill="#003D6E"></path>
            <path d="M29.4496397,37.6143424 C30.1320496,37.6143424 30.8018781,38.0489402 30.8018781,38.7566844 L30.8018781,38.7566844 L30.8018781,40.8306165 C30.8018781,41.5260072 30.144689,41.9731294 29.4749184,41.9731294 L29.4749184,41.9731294 L24.1926484,41.9731294 L24.179951,37.6143424 Z M29.448944,38.0781449 L24.7101087,38.0781449 L24.7101087,41.5180371 L29.448944,41.5180371 C29.8786825,41.5180371 30.2578055,41.1950775 30.2578055,40.7605367 L30.2578055,40.7605367 L30.2578055,38.7611249 C30.2578055,38.3388238 29.8532878,38.0781449 29.448944,38.0781449 L29.448944,38.0781449 Z" id="Combined-Shape" fill="#003D6E"></path>
            <polyline id="Fill-13" fill="#003D6E" points="22.6842152 41.9807579 22.6842152 41.5087576 16.6436411 41.5087576 16.6436411 38.0813898 22.6842152 38.0813898 22.6842152 37.621914 16.1381824 37.621914 16.1381824 41.9807579 22.6842152 41.9807579"></polyline>
            <path d="M0.685395802,40.7493216 C0.697977191,40.5258174 0.685395802,38.774731 0.685395802,38.7374424 C0.723313905,38.3401901 0.849591625,38.0669867 1.45622329,38.0669867 L6.66283107,38.0669867 L6.66283107,37.6075678 L1.46886266,37.6075678 C0.799092133,37.6075678 0.167181728,38.0669867 0.167181728,38.7499099 L0.167181728,40.7493216 C0.167181728,41.4200049 0.735895294,41.9662979 1.41836317,41.9662979 L6.66283107,41.9662979 L6.66283107,41.5067651 L1.41836317,41.5067651 C0.988624669,41.4943545 0.685395802,41.1467446 0.685395802,40.7493216" id="Fill-14" fill="#003D6E"></path>
            <polyline id="Fill-15" fill="#003D6E" points="46.1647396 41.9815549 46.7965341 41.9815549 45.937173 40.7893428 41.4004517 40.7893428 40.5663694 41.9691444 41.2235586 41.9691444 41.6531811 41.2488756 45.6591649 41.2488756 46.1647396 41.9815549"></polyline>
            <path d="M23.9901286,7.13738923 C22.3556497,7.13738923 21.026023,8.44300435 21.026023,10.0480673 C21.026023,11.6529594 22.3556497,12.9585745 23.9901286,12.9585745 C25.6247235,12.9585745 26.9544082,11.6529594 26.9544082,10.0480673 C26.9544082,8.44300435 25.6247235,7.13738923 23.9901286,7.13738923" id="Fill-16" fill="#E9823F"></path>
            <polyline id="Fill-17" fill="#003D6E" points="16.9298242 39.660493 22.6923323 39.660493 22.6923323 39.1388504 17.4226436 39.1388504 17.4226436 38.7786591 22.6923323 38.7786591 22.6923323 38.3316508 16.9298242 38.3316508 16.9298242 39.660493"></polyline>
            <polyline id="Fill-18" fill="#003D6E" points="16.9045455 39.9336395 16.9045455 41.2375467 22.6923323 41.2500142 22.6923323 40.7656603 17.4226436 40.7780709 17.4226436 40.3683511 22.6923323 40.3683511 22.6923323 39.9336395 16.9045455 39.9336395"></polyline>
            <path d="M0.975985301,40.7368541 C0.988624669,40.9977039 1.15293645,41.2460861 1.4057238,41.2584967 L6.66283107,41.2584967 L6.66283107,40.7741427 L1.43094456,40.7741427 L1.43094456,38.774731 L6.66283107,38.774731 L6.66283107,38.3277226 L1.41836317,38.3277226 C1.14029708,38.3277226 0.975985301,38.489174 0.975985301,38.774731 L0.975985301,40.7368541" id="Fill-19" fill="#003D6E"></path>
            <path d="M53.9405018,40.7801203 L49.8207637,40.7801203 L49.8207637,37.6134315 L49.3278863,37.6134315 L49.3278863,40.7428886 C49.3278863,41.0161489 49.5300582,41.2645312 49.8207637,41.2645312 L53.9405018,41.2645312 C54.2312073,41.2645312 54.4838787,41.0409701 54.4838787,40.7553561 L54.4838787,37.6134315 L53.9405018,37.6134315 L53.9405018,40.7801203" id="Fill-21" fill="#003D6E"></path>
            <path d="M33.1043882,41.9711369 L33.6856832,41.9711369 L33.6856832,40.629941 L37.6411095,40.629941 L37.6411095,41.9835475 L38.2351018,41.9835475 L38.2351018,40.6175304 C38.2351018,40.3071522 37.9443384,40.170522 37.6411095,40.170522 L33.1043882,40.170522 L33.1043882,41.9711369" id="Fill-22" fill="#003D6E"></path>
            <path d="M37.6864489,38.340304 C37.9898517,38.340304 38.2299417,38.5886863 38.2299417,38.8866539 L38.2299417,38.8866539 L38.2299417,39.4828169 C38.2299417,39.7807845 37.9518177,39.9671139 37.6611702,39.9671139 L37.6611702,39.9671139 L33.1118675,39.9671139 L33.1118675,38.340304 Z M37.6564739,38.7796269 L33.6884082,38.7796269 L33.6884082,39.512477 L37.6439505,39.512477 L37.6564739,38.7796269 Z" id="Combined-Shape" fill="#003D6E"></path>
            <polyline id="Fill-24" fill="#E9823F" points="21.4577327 14.5590831 21.4633567 23.4238192 26.5221766 23.4238192 26.5221766 20.6213636 21.4577327 14.5590831"></polyline>
            <path d="M29.4719615,38.3388238 C29.7246909,38.3388238 30.002699,38.4878646 30.002699,38.7611249 L30.002699,38.7611249 L30.002699,40.7854147 C30.002699,41.0710287 29.7373882,41.2696548 29.4593222,41.2696548 L29.4593222,41.2696548 L24.9731004,41.2696548 L24.9731004,38.3388238 Z M29.4502775,38.7814487 L25.5201299,38.7814487 L25.5201299,40.7808604 L29.4502775,40.7808604 L29.4502775,38.7814487 Z" id="Combined-Shape" fill="#003D6E"></path>
            <path d="M31.8925164,10.1381862 C30.5261312,10.1381862 29.4139248,11.2302598 29.4139248,12.571968 C29.4139248,13.9135624 30.5261312,15.0056929 31.8925164,15.0056929 C33.2589016,15.0056929 34.3712239,13.9135624 34.3712239,12.571968 C34.3712239,11.2302598 33.2589016,10.1381862 31.8925164,10.1381862" id="Fill-26" fill="#E9823F"></path>
            <polyline id="Fill-27" fill="#003D6E" points="8.94046832 39.6777995 13.9195095 39.6777995 13.9195095 37.6163349 13.4392715 37.6288024 13.4392715 39.1313927 9.42070631 39.1313927 9.42070631 37.6288024 8.94046832 37.6288024 8.94046832 39.6777995"></polyline>
            <polyline id="Fill-28" fill="#003D6E" points="8.94046832 39.9261818 8.94046832 41.9875325 9.42070631 41.9875325 9.42070631 40.3608365 13.4392715 40.3608365 13.4392715 42 13.9195095 41.9875325 13.9195095 39.9261818 8.94046832 39.9261818"></polyline>
            <polyline id="Fill-29" fill="#E9823F" points="12.0547969 21.6948783 12.0688278 28.0621288 16.5518028 28.0455054 16.9216492 27.5991802 12.0547969 21.6948783"></polyline>
            <path d="M14.472105,15.5175437 C13.2474198,15.5175437 12.2504172,16.4965558 12.2504172,17.699129 C12.2504172,18.9016453 13.2474198,19.8806573 14.472105,19.8806573 C15.6968481,19.8806573 16.6937347,18.9016453 16.6937347,17.699129 C16.6937347,16.4965558 15.6968481,15.5175437 14.472105,15.5175437" id="Fill-30" fill="#E9823F"></path>
            <path d="M44.2817058,38.3305691 L45.7602799,40.5038427 L41.615263,40.5038427 L43.1317552,38.3305691 L44.2817058,38.3305691 Z M44.0613285,38.7616942 L43.3410005,38.7616942 L42.5954518,39.9664307 L44.8447374,39.9664307 L44.0613285,38.7616942 Z" id="Combined-Shape" fill="#003D6E"></path>
            <path d="M44.2453531,20.4738031 C43.1699052,20.4738031 42.2975569,21.3303604 42.2975569,22.3864546 C42.2975569,23.4425489 43.1699052,24.2990493 44.2453531,24.2990493 C45.3210328,24.2990493 46.1933811,23.4425489 46.1933811,22.3864546 C46.1933811,21.3303604 45.3210328,20.4738031 44.2453531,20.4738031" id="Fill-34" fill="#E9823F"></path>
            <path d="M49.3349018,31.2436192 C48.7534329,31.2436192 48.2792247,31.7092434 48.2792247,32.2803575 C48.2792247,32.8513008 48.7534329,33.3169251 49.3349018,33.3169251 C49.9164866,33.3169251 50.3907528,32.8513008 50.3907528,32.2803575 C50.3907528,31.7092434 49.9164866,31.2436192 49.3349018,31.2436192" id="Fill-36" fill="#E9823F"></path>
            <path d="M45.0900455,31.2436192 C44.5084606,31.2436192 44.0342524,31.7092434 44.0342524,32.2803575 C44.0342524,32.8513008 44.5084606,33.3169251 45.0900455,33.3169251 C45.6716303,33.3169251 46.1458386,32.8513008 46.1458386,32.2803575 C46.1458386,31.7092434 45.6716303,31.2436192 45.0900455,31.2436192" id="Fill-37" fill="#E9823F"></path>
            <path d="M38.3994136,22.753022 C37.9365113,22.753022 37.5610989,23.1216957 37.5610989,23.5763326 C37.5610989,24.0308556 37.9365113,24.3995294 38.3994136,24.3995294 C38.8623739,24.3995294 39.2379023,24.0308556 39.2379023,23.5763326 C39.2379023,23.1216957 38.8623739,22.753022 38.3994136,22.753022" id="Fill-38" fill="#E9823F"></path>
            <polygon id="Fill-39" fill="#003D6E" points="57.4691466 41.9751789 58 41.9751789 58 37.616221 57.4691466 37.616221"></polygon>
            <polyline id="Fill-40" fill="#003D6E" points="57.140523 41.9751219 57.140523 37.6038105 56.5846227 37.6038105 56.5972041 41.9751219 57.140523 41.9751219"></polyline>
            <polyline id="Fill-41" fill="#003D6E" points="8.71301768 42 8.71301768 37.6288024 8.23272171 37.6288024 8.23272171 41.9875325 8.71301768 42"></polyline>
            <polygon id="Fill-42" fill="#003D6E" points="14.210215 41.9627683 14.6525348 41.9627683 14.6525348 37.6163349 14.210215 37.6163349"></polygon>
            <polyline id="Fill-43" fill="#FFFFFE" points="0.0402969016 0.0606 0.0602344016 0.0606 0.0602344016 0.07944 0.0794469016 0.07944 0.0794469016 0.0606 0.0992635683 0.0606 0.0992635683 0.04056 0.0794469016 0.04056 0.0794469016 0.0606 0.0602344016 0.0606 0.0602344016 0.04056 0.0402969016 0.04056 0.0402969016 0.0606"></polyline>
            <polyline id="Fill-44" fill="#FFFFFE" points="0.0979444375 0.0613216555 0.0979444375 0.0415216555 0.0788527709 0.0415216555 0.0788527709 0.0613216555 0.0979444375 0.0613216555 0.0979444375 0.0806416555 0.137819438 0.0806416555 0.137819438 0.0415216555 0.117881938 0.0415216555 0.117881938 0.0613216555 0.0979444375 0.0613216555"></polyline>
            <polygon id="Fill-45" fill="#FFFFFE" points="0.0504479167 0.0929155933 0.0703854167 0.0929155933 0.0703854167 0.0735955933 0.0504479167 0.0735955933"></polygon>
            <polyline id="Fill-46" fill="#FFFFFE" points="0.128653919 0.104465259 0.128653919 0.0652252591 0.108837252 0.0652252591 0.108837252 0.0846652591 0.0893830857 0.0846652591 0.0893830857 0.0652252591 0.0699289191 0.0652252591 0.0699289191 0.0846652591 0.0893830857 0.0846652591 0.0893830857 0.123545259 0.108837252 0.123545259 0.108837252 0.104465259 0.128653919 0.104465259"></polyline>
        </g>
    </g>
</svg>