<svg height="50" viewBox="0 0 110 50" width="110" xmlns="http://www.w3.org/2000/svg"><g fill="none" transform="translate(28 10)"><g fill="#fff"><circle cx="22.943027" cy="19.290433" r="6.870565"/><path d="m35.8735894 22.6106337c3.189792.4080059 5.1804061-.4354881 6.454896-2.664458 1.1204306-1.9591681.9269977-4.1868168-.5255983-6.0466259-1.3246978-1.6962369-3.747629-2.4287448-5.9292977-1.7786836zm-3.6569905 3.8091999v-18.15758256c4.2320039-.00105702 8.5596673-.80491314 11.9545192 2.79182776 2.5016785 2.6501884 3.2598189 6.4501395 1.7311182 9.8814583-1.5596183 3.5005529-4.3842134 5.2718375-8.1704233 5.4681771-1.7892538.0930169-3.587492.0161194-5.5152141.0161194z"/><path d="m13.6066953 21.4509088c.6416051 1.0427403 1.2367018 2.0099045 1.8257206 2.9672913-2.8803524 3.1884708-8.84770252 3.1490972-12.324737-.0515292-3.94185466-3.6279227-4.16276976-9.6084854-.49679471-13.4562662 3.49473939-3.66808904 9.35850251-3.96114512 12.84399311-.57977-.5826768.9431172-1.1753951 1.9018253-1.8333838 2.9667629-1.6383656-1.3011793-3.4625007-2.188275-5.47346224-1.494348-1.22058234.4212186-2.50722782 1.1944214-3.30764866 2.1803475-1.89178371 2.3299144-1.53451432 5.4819183.55017372 7.5282897 1.70416444 1.6732469 4.89633468 2.6972253 8.21613898-.060778"/></g><path d="m35.8735894 22.6106337v-10.4897675c2.1816687-.6500612 4.6045999.0824467 5.9292977 1.7786836 1.452596 1.8598091 1.6460289 4.0874578.5255983 6.0466259-1.2744899 2.2289699-3.265104 3.0724639-6.454896 2.664458" fill="#000"/><path d="m49.818788 5.58940837.0978699-.01477641c.123119-.01670253.248804-.02532929.3765038-.02532929 1.5323976 0 2.7746513 1.24225369 2.7746513 2.77465135 0 1.5323976-1.2422537 2.77465138-2.7746513 2.77465138s-2.7746514-1.24225378-2.7746514-2.77465138c0-.37669152.0750653-.73585062.2110532-1.0633347-5.6624842-4.89415672-10.9859483-5.96689882-15.9702034-3.21851583-5.0035912 2.75904519-7.5207128 6.87241001-7.5513648 12.34009471 1.1218475.4881851 1.9060619 1.6066285 1.9060619 2.9082349 0 1.7513115-1.4197185 3.1710301-3.1710301 3.1710301s-3.1710301-1.4197186-3.1710301-3.1710301c0-1.1778822.642213-2.2057674 1.5955884-2.7526053l-.0100734.1100802c.6963102-7.9729856 4.1635929-13.1563786 10.4018481-15.55017903 6.2105515-2.38316967 12.2303608-.8859432 18.0594279 4.4916794z" fill="#b1b0b0"/><path d="m48.57552 12.68412h3.699535v13.74113h-3.699535z" fill="#fff"/></g></svg>