<svg height="50" viewBox="0 0 110 50" width="110" xmlns="http://www.w3.org/2000/svg"><g fill="none" fill-rule="evenodd" transform="translate(31 11)"><path d="m33.034428 28.234836.728028-.019152.718704-.052164.704592-.090216.699552-.123984.6804-.156996.671328-.190512.656712-.223524.6426-.252252.627984-.285516.609336-.309456.590184-.34272.57582-.366408.552132-.394884.53298-.418824.51408-.442764.49014-.470988.47124-.490392.442512-.51408.418824-.53298.395136-.55188.366408-.576072.34272-.590184.309204-.609084.285768-.628236.252252-.6426.223524-.656712.190512-.671076.156996-.680652.123732-.699552.090468-.70434.052416-.718704.0189-.728028-.0189-.723492-.052416-.713916-.090468-.70434-.123732-.690228-.156996-.680652-.190512-.666036-.223524-.656964-.252252-.637812-.285768-.623448-.309204-.609084-.34272-.585396-.366408-.57582-.395136-.552132-.418824-.528444-.442512-.513828-.47124-.49014-.49014-.466704-.51408-.442512-.53298-.418824-.552132-.394884-.57582-.36666-.590184-.337932-.609336-.309204-.627984-.285516-.6426-.252252-.656712-.223776-.671328-.19026-.6804-.157248-.699552-.123732-.704592-.090468-.718704-.052164-.728028-.019152-.723492.019152-.718452.052164-.704592.090468-.694764.123732-.680652.157248-.671076.19026-.651924.223776-.6426.252252-.623448.285516-.604296.309204-.590184.337932-.571284.36666-.552132.394884-.53298.418824-.509292.442512-.49014.466704-.466452.49014-.442512.513828-.418824.528444-.390348.552132-.366408.57582-.337932.585396-.313992.609084-.28098.623448-.252252.637812-.218736.656964-.190512.666036-.156996.680652-.123732.690228-.090468.70434-.052416.713916-.0189.723492.0189.728028.052416.718704.090468.70434.123732.699552.156996.680652.190512.671076.218736.656712.252252.6426.28098.628236.313992.609084.337932.590184.366408.576072.390348.55188.418824.53298.442512.51408.466452.490392.49014.470988.509292.442764.53298.418824.552132.394884.571284.366408.590184.34272.604296.309456.623448.285516.6426.252252.651924.223524.671076.190512.680652.156996.694764.123984.704592.090216.718452.052164z" fill="#f1ad3d" fill-rule="nonzero"/><path d="m14.158872 28.234836.723492-.019152.718704-.052164.70434-.090216.694764-.123984.680652-.156996.671076-.190512.651924-.223524.6426-.252252.623448-.285516.604548-.309456.590184-.34272.571032-.366408.552132-.394884.53298-.418824.509292-.442764.49014-.470988.466452-.490392.442512-.51408.418824-.53298.390348-.55188.366408-.576072.337932-.590184.314244-.609084.280728-.628236.252252-.6426.218988-.656712.19026-.671076.156996-.680652.123732-.699552.090468-.70434.052416-.718704.019152-.728028-.019152-.723492-.052416-.713916-.090468-.70434-.123732-.690228-.156996-.680652-.19026-.666036-.218988-.656964-.252252-.637812-.280728-.623448-.314244-.609084-.337932-.585396-.366408-.57582-.390348-.552132-.418824-.528444-.442512-.513828-.466452-.49014-.49014-.466704-.509292-.442512-.53298-.418824-.552132-.394884-.571032-.36666-.590184-.337932-.604548-.309204-.623448-.285516-.6426-.252252-.651924-.223776-.671076-.19026-.680652-.157248-.694764-.123732-.70434-.090468-.718704-.052164-.723492-.019152-.728028.019152-.718704.052164-.70434.090468-.699804.123732-.6804.157248-.671076.19026-.656712.223776-.6426.252252-.628236.285516-.609336.309204-.589932.337932-.576072.36666-.552132.394884-.53298.418824-.51408.442512-.49014.466704-.47124.49014-.442512.513828-.418824.528444-.394884.552132-.36666.57582-.34272.585396-.309204.609084-.285516.623448-.252252.637812-.223776.656964-.19026.666036-.157248.680652-.123732.690228-.090468.70434-.052164.713916-.019152.723492.019152.728028.052164.718704.090468.70434.123732.699552.157248.680652.19026.671076.223776.656712.252252.6426.285516.628236.309204.609084.34272.590184.36666.576072.394884.55188.418824.53298.442512.51408.47124.490392.49014.470988.51408.442764.53298.418824.552132.394884.576072.366408.589932.34272.609336.309456.628236.285516.6426.252252.656712.223524.671076.190512.6804.156996.699804.123984.70434.090216.718704.052164z" fill="#d82332" fill-rule="nonzero"/><path d="m21.945168 5.428332h7.495992v-.766332h-6.848604z" fill="#f1ad3d" fill-rule="nonzero"/><path d="m20.822004 7.132104h8.619156v-.76608h-8.167068z" fill="#f1ad3d" fill-rule="nonzero"/><path d="m19.984356 8.831088h9.456804v-.766332h-9.12366z" fill="#f1ad3d" fill-rule="nonzero"/><path d="m19.408536 10.53486h10.032624v-.76608h-9.794736z" fill="#f1ad3d" fill-rule="nonzero"/><path d="m19.74168 18.768708h9.723168v-.766332h-9.961056z" fill="#f1ad3d" fill-rule="nonzero"/><path d="m20.460384 20.47248h9.004464v-.766332h-9.361548z" fill="#f1ad3d" fill-rule="nonzero"/><path d="m21.469392 22.171716h7.995456v-.766332h-8.476272z" fill="#f1ad3d" fill-rule="nonzero"/><path d="m22.85892 23.875488h6.605928v-.77112h-7.277004z" fill="#f1ad3d" fill-rule="nonzero"/><path d="m19.070604 12.234096h10.370556v-.766332h-10.223136z" fill="#f1ad3d" fill-rule="nonzero"/><path d="m25.391016 17.069472h3.954888v-.76608h-3.812256z" fill="#f1ad3d" fill-rule="nonzero"/><path d="m25.705008 15.370488h3.640896v-.77112h-3.498012z" fill="#f1ad3d" fill-rule="nonzero"/><path d="m18.808776 14.599368h1.02816v.77112h-.980532z" fill="#f1ad3d" fill-rule="nonzero"/><path d="m16.890804 13.671504-.066528-.004788-.06678-.009576-.06174-.009576-.061992-.009324-.056952-.009576-.061992-.009576-.061992-.009576-.066528-.009324-.066528-.009576-.076104-.004788-.08568-.004788-.090468-.004788h-.100044l-.109368.004788-.123732.009576-.138096.009576-.095256.014112-.090468.014364-.080892.028476-.071316.028476-.06678.033264-.06174.038304-.047628.047628-.04284.042588-.028476.052416-.02394.052416-.009324.057204v.056952l.014112.061992.019152.06174.038052.061992.047628.06174.095004.090468.114408.071568.133308.06174.142632.052416.15246.047628.156996.052164.156996.057204.152208.061992.142884.08064.133308.100044.118944.118944.100044.147672.076104.180684.047628.2142.0189.25704-.0189.29988-.033516.223776-.056952.195048-.076104.180936-.095256.156996-.109368.138096-.123984.118944-.133056.10458-.147672.090468-.152208.071316-.156996.061992-.162036.047628-.16632.038052-.162036.028476-.156996.014364-.156996.009576-.147672.004536h-.204624l-.19026-.004536h-.166572l-.156996-.00504-.142884-.004536-.12852-.009576-.114156-.009576-.10962-.014112-.099792-.009576-.090468-.019152-.090468-.014112-.080892-.02394-.080892-.0189-.076104-.028728-.076356-.028476-.08064-.028476.213948-1.051848.043092.009576.052164.014112.066528.019152.081144.0189.08568.019152.095004.019152.104832.023688.114156.019152.118944.0189.123732.019152.12852.014112.133308.014364.138096.004788.137844.004788h.138096l.138096-.004788.138096-.028728.109368-.038052.08568-.052164.066528-.06678.047628-.066528.038052-.076104.02394-.076104.0189-.071568.009576-.138096-.04284-.118944-.080892-.095004-.118944-.080892-.142884-.071568-.166572-.071316-.185724-.066528-.185472-.076356-.19026-.085428-.180936-.100044-.166572-.123732-.152208-.147672-.119196-.180684-.08568-.2142-.04284-.25704.004788-.304668.02394-.185472.033264-.176148.047628-.161784.056952-.15246.076356-.142632.08568-.123732.099792-.118944.119196-.104832.137844-.090468.152208-.076104.17136-.071316.190512-.052416.2142-.04284.2331-.033264.25704-.019152.280728-.004788h.176148l.161784.004788.147672.004788.133056.004788.119196.009576.109368.009576.095256.009324.08568.009576.080892.009576.066528.014364.061992.009576.056952.009324.047628.009576.04284.004788.04284.009576.038052.004788z" fill="#fffffe" fill-rule="nonzero"/><path d="m16.890804 13.671504-.066528-.004788-.06678-.009576-.06174-.009576-.061992-.009324-.056952-.009576-.061992-.009576-.061992-.009576-.066528-.009324-.066528-.009576-.076104-.004788-.08568-.004788-.090468-.004788h-.100044l-.109368.004788-.123732.009576-.138096.009576-.095256.014112-.090468.014364-.080892.028476-.071316.028476-.06678.033264-.06174.038304-.047628.047628-.04284.042588-.028476.052416-.02394.052416-.009324.057204v.056952l.014112.061992.019152.06174.038052.061992.047628.06174.095004.090468.114408.071568.133308.06174.142632.052416.15246.047628.156996.052164.156996.057204.152208.061992.142884.08064.133308.100044.118944.118944.100044.147672.076104.180684.047628.2142.0189.25704-.0189.29988-.033516.223776-.056952.195048-.076104.180936-.095256.156996-.109368.138096-.123984.118944-.133056.10458-.147672.090468-.152208.071316-.156996.061992-.162036.047628-.16632.038052-.162036.028476-.156996.014364-.156996.009576-.147672.004536h-.204624l-.19026-.004536h-.166572l-.156996-.00504-.142884-.004536-.12852-.009576-.114156-.009576-.10962-.014112-.099792-.009576-.090468-.019152-.090468-.014112-.080892-.02394-.080892-.0189-.076104-.028728-.076356-.028476-.08064-.028476.213948-1.051848.043092.009576.052164.014112.066528.019152.081144.0189.08568.019152.095004.019152.104832.023688.114156.019152.118944.0189.123732.019152.12852.014112.133308.014364.138096.004788.137844.004788h.138096l.138096-.004788.138096-.028728.109368-.038052.08568-.052164.066528-.06678.047628-.066528.038052-.076104.02394-.076104.0189-.071568.009576-.138096-.04284-.118944-.080892-.095004-.118944-.080892-.142884-.071568-.166572-.071316-.185724-.066528-.185472-.076356-.19026-.085428-.180936-.100044-.166572-.123732-.152208-.147672-.119196-.180684-.08568-.2142-.04284-.25704.004788-.304668.02394-.185472.033264-.176148.047628-.161784.056952-.15246.076356-.142632.08568-.123732.099792-.118944.119196-.104832.137844-.090468.152208-.076104.17136-.071316.190512-.052416.2142-.04284.2331-.033264.25704-.019152.280728-.004788h.176148l.161784.004788.147672.004788.133056.004788.119196.009576.109368.009576.095256.009324.08568.009576.080892.009576.066528.014364.061992.009576.056952.009324.047628.009576.04284.004788.04284.009576.038052.004788z"/><path d="m18.018756 11.420388h1.318464l-.1953 1.15164h.794808l-.17136 1.075536-.837648-.023688-.456876 2.655576-.004788.095256.02394.080892.047628.061992.06174.052164.08568.033516.095256.028476.10458.0189.114156.009576.104832-.004788.095256-.009576.08568-.014112.076104-.019152.06174-.0189.04284-.014364.028728-.009576.009576-.004536-.166572.885024-.033516.02394-.066528.038052-.033264.0189-.033516.014364-.0378.014364-.043092.014364-.042588.014112-.04788.014364-.047376.009576-.057204.009324-.056952.009576-.061992.009576-.071316.009576-.076104.009324-.081144.009576h-.36162l-.19026-.014364-.166824-.0189-.152208-.028476-.12852-.033264-.109368-.043092-.090468-.047376-.080892-.057204-.061992-.061992-.047376-.066528-.033516-.080892-.023688-.080892-.014364-.090468-.004788-.100044v-.10458l.014364-.109368.014364-.119196z" fill="#fffffe" fill-rule="nonzero"/><path d="m18.018756 11.420388h1.318464l-.1953 1.15164h.794808l-.17136 1.075536-.837648-.023688-.456876 2.655576-.004788.095256.02394.080892.047628.061992.06174.052164.08568.033516.095256.028476.10458.0189.114156.009576.104832-.004788.095256-.009576.08568-.014112.076104-.019152.06174-.0189.04284-.014364.028728-.009576.009576-.004536-.166572.885024-.033516.02394-.066528.038052-.033264.0189-.033516.014364-.0378.014364-.043092.014364-.042588.014112-.04788.014364-.047376.009576-.057204.009324-.056952.009576-.061992.009576-.071316.009576-.076104.009324-.081144.009576h-.36162l-.19026-.014364-.166824-.0189-.152208-.028476-.12852-.033264-.109368-.043092-.090468-.047376-.080892-.057204-.061992-.061992-.047376-.066528-.033516-.080892-.023688-.080892-.014364-.090468-.004788-.100044v-.10458l.014364-.109368.014364-.119196z"/><path d="m20.974212 15.522948-.004536.085428.009324.090468.019152.090468.033264.090468.038052.08568.052416.090468.056952.080892.06678.080892.071316.071316.076356.071316.085428.057204.08568.052416.095256.04284.095256.033264.095256.019152.12348.0189.119196.014364.123732.014112.123732.009576.123732.004788h.12852l.123732-.004788.12852-.009576.12852-.0189.128268-.02394.133308-.028476.12852-.04284.133308-.052416.138096-.056952.133308-.076104.137844-.080892-.19026 1.17054-.15246.076356-.076104.028476-.071316.028476-.071316.02394-.076356.023688-.075852.019152-.081144.014112-.08568.014364-.095004.009576-.100044.009576-.10962.009324-.12348.004788h-.12852l-.147672.004788h-.156996l-.233352-.004788-.237888-.023688-.237888-.033264-.23814-.057204-.2331-.071316-.223776-.090468-.213948-.118944-.200088-.138096-.185472-.161784-.161784-.1953-.138096-.218736-.114156-.252252-.080892-.28098-.052416-.31878-.014364-.352044.02394-.390348.0189-.152208.028728-.176148.038052-.185724.052164-.199836.071568-.204624.08568-.204624.109368-.209412.133308-.199836.152208-.190512.185724-.180936.209412-.161784.237888-.142632.27594-.118944.309456-.08568.34272-.057204.38556-.019152.185472.004788.1953.019152.195048.033264.195048.047628.190512.071316.185472.08568.17136.114156.156996.133308.142884.161784.118944.190512.095256.218988.066528.252252.038052.285516.004788.323568-.033264.36162-.071316.399924-.02394.290304-3.083976-.02394.1769422-.9286906 1.7410298.0149386.009576-.118944-.004788-.114156-.009576-.104832-.0189-.095004-.033516-.090468-.033264-.080892-.047376-.071568-.04788-.066528-.056952-.057204-.06174-.047628-.071568-.042588-.071316-.038052-.076104-.028728-.076104-.0189-.081144-.014364-.085428-.009576-.090468.004788-.08568.014364-.080892.0189-.081144.028728-.08064.038052-.071568.04284-.071316.052164-.061992.057204-.06174.066528-.057204.071568-.052416.076104-.042588.080892-.04284.08568-.033516.095256-.028476.095004-.019152.100044-.19026.985068z" fill="#fffffe" fill-rule="nonzero"/><path d="m32.339664 12.857544-.061992-.033264-.06174-.028476-.06678-.033264-.071316-.033516-.071316-.028476-.080892-.028476-.081144-.028728-.085428-.028476-.090468-.023688-.090468-.019152-.100044-.0189-.099792-.014364-.10962-.009576-.109368-.009576h-.352296l-.123732.009576-.12852.014364-.133056.023688-.133308.038052-.133308.052416-.133308.06678-.133308.085428-.12852.104832-.123732.123732-.118944.152208-.114156.176148-.104832.209412-.099792.237888-.090468.266616-.076104.304668-.028728.171108-.0189.166572-.009576.166572.004788.162036.014364.161784.033264.152208.04284.142884.052416.142632.071316.12852.08568.123732.099792.10962.114408.099792.128268.08568.147672.071568.161784.06174.180936.04284.06174.014364.071568.014364.08568.009324.095004.009576.104832.009576h.228312l.119196-.009576.123732-.014364.123732-.023688.118944-.033264.118944-.038052.118944-.052416.10962-.061992.099792-.076104.095256-.08568-.2142 1.270836-.028728.023688-.028476.028476-.038052.033516-.04284.028476-.052416.038052-.066528.033264-.076104.033264-.08568.028728-.109368.033264-.123984.02394-.142632.0189-.166572.019152-.185724.009324-.2142.004788-.242676-.004788-.266364-.014112-.218988-.02394-.218988-.047376-.218988-.071568-.218736-.095256-.209412-.114156-.200088-.142632-.19026-.166572-.176148-.190512-.156996-.2142-.133308-.237888-.114156-.266616-.08568-.290304-.057204-.31878-.0189-.337932.009324-.371196.052416-.395136.038052-.195048.04284-.190512.047628-.185472.047628-.176148.052416-.166572.06174-.166572.061992-.156996.066528-.147672.071568-.14742.071316-.138096.080892-.133056.08568-.123984.08568-.118944.095004-.114156.095256-.104832.100044-.099792.109368-.095256.109368-.090468.114408-.080892.118944-.076104.12852-.071316.12852-.061992.133308-.056952.137844-.052416.147672-.047628.14742-.038052.15246-.033264.161784-.028728.161784-.023688.17136-.019152.17136-.009576.180684-.004536.15246.004536.14742.009576.142884.014364.142632.019152.133308.0189.12852.028476.123732.02394.114408.028476.109368.028728.095256.028476.090216.028476.076356.028476.066528.02394.057204.019152.04284.0189.028476.009576z" fill="#fffffe" fill-rule="nonzero"/><path d="m32.339664 12.857544-.061992-.033264-.06174-.028476-.06678-.033264-.071316-.033516-.071316-.028476-.080892-.028476-.081144-.028728-.085428-.028476-.090468-.023688-.090468-.019152-.100044-.0189-.099792-.014364-.10962-.009576-.109368-.009576h-.352296l-.123732.009576-.12852.014364-.133056.023688-.133308.038052-.133308.052416-.133308.06678-.133308.085428-.12852.104832-.123732.123732-.118944.152208-.114156.176148-.104832.209412-.099792.237888-.090468.266616-.076104.304668-.028728.171108-.0189.166572-.009576.166572.004788.162036.014364.161784.033264.152208.04284.142884.052416.142632.071316.12852.08568.123732.099792.10962.114408.099792.128268.08568.147672.071568.161784.06174.180936.04284.06174.014364.071568.014364.08568.009324.095004.009576.104832.009576h.228312l.119196-.009576.123732-.014364.123732-.023688.118944-.033264.118944-.038052.118944-.052416.10962-.061992.099792-.076104.095256-.08568-.2142 1.270836-.028728.023688-.028476.028476-.038052.033516-.04284.028476-.052416.038052-.066528.033264-.076104.033264-.08568.028728-.109368.033264-.123984.02394-.142632.0189-.166572.019152-.185724.009324-.2142.004788-.242676-.004788-.266364-.014112-.218988-.02394-.218988-.047376-.218988-.071568-.218736-.095256-.209412-.114156-.200088-.142632-.19026-.166572-.176148-.190512-.156996-.2142-.133308-.237888-.114156-.266616-.08568-.290304-.057204-.31878-.0189-.337932.009324-.371196.052416-.395136.038052-.195048.04284-.190512.047628-.185472.047628-.176148.052416-.166572.06174-.166572.061992-.156996.066528-.147672.071568-.14742.071316-.138096.080892-.133056.08568-.123984.08568-.118944.095004-.114156.095256-.104832.100044-.099792.109368-.095256.109368-.090468.114408-.080892.118944-.076104.12852-.071316.12852-.061992.133308-.056952.137844-.052416.147672-.047628.14742-.038052.15246-.033264.161784-.028728.161784-.023688.17136-.019152.17136-.009576.180684-.004536.15246.004536.14742.009576.142884.014364.142632.019152.133308.0189.12852.028476.123732.02394.114408.028476.109368.028728.095256.028476.090216.028476.076356.028476.066528.02394.057204.019152.04284.0189.028476.009576z"/><path d="m44.056908 17.669232h-1.318212l.095256-.528192v-.047628l-.076356.095004-.08064.085932-.081144.076104-.085428.066528-.085932.061992-.085428.052164-.08568.043092-.090468.042588-.090468.033516-.090468.023688-.090468.023688-.095004.014364-.095256.014364-.090468.009324-.095256.00504h-.095256l-.247212-.019152-.228564-.052416-.209412-.080892-.190512-.109368-.17136-.138096-.152208-.161784-.133308-.176148-.114156-.199836-.095256-.2142-.076104-.223776-.052416-.2331-.038052-.242676-.014112-.242676.004788-.247716.023688-.242676.04284-.242676.071316-.280728.08568-.266616.100044-.242676.118944-.228312.123732-.214452.142884-.19026.14742-.17136.156996-.156996.166824-.138096.175896-.118944.180936-.10458.180684-.080892.190512-.06678.19026-.04284.190512-.028476.195048-.009576.138096.004788.133308.014364.123732.023688.114156.033264.10962.038052.095004.04284.095256.052416.08568.052416.076104.056952.071316.061992.061992.061992.056952.06174.047628.06174.04284.061992.038052.057204.028728.056952.333144-1.870344h1.294524z" fill="#fffffe" fill-rule="nonzero"/><path d="m44.056908 17.669232h-1.318212l.095256-.528192v-.047628l-.076356.095004-.08064.085932-.081144.076104-.085428.066528-.085932.061992-.085428.052164-.08568.043092-.090468.042588-.090468.033516-.090468.023688-.090468.023688-.095004.014364-.095256.014364-.090468.009324-.095256.00504h-.095256l-.247212-.019152-.228564-.052416-.209412-.080892-.190512-.109368-.17136-.138096-.152208-.161784-.133308-.176148-.114156-.199836-.095256-.2142-.076104-.223776-.052416-.2331-.038052-.242676-.014112-.242676.004788-.247716.023688-.242676.04284-.242676.071316-.280728.08568-.266616.100044-.242676.118944-.228312.123732-.214452.142884-.19026.14742-.17136.156996-.156996.166824-.138096.175896-.118944.180936-.10458.180684-.080892.190512-.06678.19026-.04284.190512-.028476.195048-.009576.138096.004788.133308.014364.123732.023688.114156.033264.10962.038052.095004.04284.095256.052416.08568.052416.076104.056952.071316.061992.061992.061992.056952.06174.047628.06174.04284.061992.038052.057204.028728.056952.333144-1.870344h1.294524z"/><path d="m41.901048 16.517592.133308-.009576.123732-.028476.114156-.033516.10962-.052164.099792-.057204.095256-.071316.090468-.080892.080892-.08568.071316-.095256.066528-.104832.061992-.109368.052416-.114156.047628-.118944.038052-.123732.033264-.12852.023688-.12852.02394-.133308.014112-.138096v-.12852l-.004788-.133056-.014112-.123984-.019152-.118944-.033264-.114156-.038052-.109368-.047628-.095256-.056952-.090468-.061992-.076104-.071316-.06678-.080892-.056952-.08568-.038052-.090468-.02394-.100044-.009576-.12852.009576-.118692.019152-.10962.038052-.10962.047628-.095004.061992-.095256.076104-.080892.080892-.080892.090216-.071568.104832-.066528.109368-.06174.114408-.052416.123732-.047628.128268-.038052.12852-.038052.138096-.028476.138096-.02394.209412.009576.228312.033264.233352.061992.223524.095004.1953.123732.156996.157248.104832z" fill="#f1ad3d" fill-rule="nonzero"/><path d="m12.674088 16.612596-.190512 1.056636h-1.199268l.033264-.195048.02394-.176148.0189-.133308.019152-.071316-.06678.076104-.076104.076104-.090216.071568-.100044.066528-.114408.066528-.118944.057204-.123732.057204-.12852.047628-.137844.042588-.138096.033516-.138096.028476-.142632.0189-.138096.009576-.138096.004788-.133308-.014364-.128268-.0189-.166572-.04284-.15246-.047628-.133308-.06174-.118944-.071568-.10458-.076104-.095256-.08568-.076104-.090468-.06678-.095004-.056952-.100044-.047628-.104832-.038052-.10458-.028728-.10458-.0189-.10962-.014364-.109368-.009576-.104832v-.10458l.014364-.185724.028476-.176148.047628-.166572.061992-.161784.076104-.152208.08568-.138096.100044-.133308.114156-.118944.118944-.109368.133308-.100044.137844-.090216.142884-.076356.152208-.066528.157248-.052416.161784-.04284.166572-.028476h.009576l.023688-.004788.033516-.004788.052164-.004788.057204-.009576.066528-.004536.071316-.009576.080892-.009576.081144-.009576.08064-.009576.085932-.004788.076104-.009324.076104-.004788.071316-.004788.06678-.004788h.161784l.114156.004788.10458.004788h.104832l.08568.004788.066528.004788.047628.004536h.014364l.009576-.033264.028476-.08568.023688-.099792.009576-.090468-.0189-.10458-.04284-.095256-.057204-.08568-.076104-.071316-.090468-.061992-.100044-.04284-.114156-.028476-.123732-.009576-.133308-.004788-.142632-.004788h-.147672l-.152208.004788-.156996.009576-.15246.014112-.152208.014364-.147672.019152-.142632.0189-.138096.023688-.123732.02394-.114156.02394-.104832.028476-.08568.028476-.066528.033264-.052416.028728.337932-1.147104.10458-.04284.104832-.038052.114156-.033264.228564-.047628.123732-.0189.123732-.019152.12852-.009576.133308-.009576.137844-.004788.142884-.004788h.456876l.166572.004788.166572.004788.133308.009576.142884.02394.14742.033264.152208.04284.147672.056952.142632.06678.142884.080892.133308.090468.118944.10458.10458.114156.095256.12852.071316.142884.047628.152208.028728.161784v.180936l-.028728.190512z" fill="#fffffe" fill-rule="nonzero"/><path d="m12.674088 16.612596-.190512 1.056636h-1.199268l.033264-.195048.02394-.176148.0189-.133308.019152-.071316-.06678.076104-.076104.076104-.090216.071568-.100044.066528-.114408.066528-.118944.057204-.123732.057204-.12852.047628-.137844.042588-.138096.033516-.138096.028476-.142632.0189-.138096.009576-.138096.004788-.133308-.014364-.128268-.0189-.166572-.04284-.15246-.047628-.133308-.06174-.118944-.071568-.10458-.076104-.095256-.08568-.076104-.090468-.06678-.095004-.056952-.100044-.047628-.104832-.038052-.10458-.028728-.10458-.0189-.10962-.014364-.109368-.009576-.104832v-.10458l.014364-.185724.028476-.176148.047628-.166572.061992-.161784.076104-.152208.08568-.138096.100044-.133308.114156-.118944.118944-.109368.133308-.100044.137844-.090216.142884-.076356.152208-.066528.157248-.052416.161784-.04284.166572-.028476h.009576l.023688-.004788.033516-.004788.052164-.004788.057204-.009576.066528-.004536.071316-.009576.080892-.009576.081144-.009576.08064-.009576.085932-.004788.076104-.009324.076104-.004788.071316-.004788.06678-.004788h.161784l.114156.004788.10458.004788h.104832l.08568.004788.066528.004788.047628.004536h.014364l.009576-.033264.028476-.08568.023688-.099792.009576-.090468-.0189-.10458-.04284-.095256-.057204-.08568-.076104-.071316-.090468-.061992-.100044-.04284-.114156-.028476-.123732-.009576-.133308-.004788-.142632-.004788h-.147672l-.152208.004788-.156996.009576-.15246.014112-.152208.014364-.147672.019152-.142632.0189-.138096.023688-.123732.02394-.114156.02394-.104832.028476-.08568.028476-.066528.033264-.052416.028728.337932-1.147104.10458-.04284.104832-.038052.114156-.033264.228564-.047628.123732-.0189.123732-.019152.12852-.009576.133308-.009576.137844-.004788.142884-.004788h.456876l.166572.004788.166572.004788.133308.009576.142884.02394.14742.033264.152208.04284.147672.056952.142632.06678.142884.080892.133308.090468.118944.10458.10458.114156.095256.12852.071316.142884.047628.152208.028728.161784v.180936l-.028728.190512z"/><path d="m11.526984 15.370488-.004788-.023688-.0189-.02394-.028728-.014364-.047376-.009324-.052416-.009576-.061992-.004788h-.142632l-.076104.004788-.081144.009576-.076104.009324-.076104.009576-.071316.009576-.06678.014364-.056952.014364-.052416.014112-.033264.009576-.038052.014364-.052416.0189-.052416.023688-.06174.028728-.061992.033264-.066528.033264-.061992.038052-.066528.047628-.06174.047628-.057204.057204-.052416.056952-.047628.061992-.033264.066528-.028476.076104-.014364.076104-.004788.162036.023688.12852.047628.095004.061992.071568.071316.047628.081144.028476.075852.014112.076356.004788.142632-.004788.12852-.014112.123732-.019152.109368-.028476.095256-.033264.090468-.04284.080892-.04284.071568-.052416.06174-.047628.057204-.056952.047628-.052416.038052-.057204.033264-.056952.028476-.057204.02394-.052416.014112-.052416.038052-.137844.033264-.156996.028728-.15246z" fill="#d82332" fill-rule="nonzero"/><path d="m2.660364 17.669232h-1.294524l1.080324-6.248844h2.251116l.2142 3.707424 1.556352-3.707424h2.35116l-1.104264 6.248844h-1.294524l.818748-4.668804h-.052416l-1.937124 4.668804h-1.461096l-.009576-.195048-.033264-.518868-.04284-.737604-.095004-1.699236-.04284-.74718-.033516-.542556-.009576-.228312h-.071316z" fill="#fffffe" fill-rule="nonzero"/><path d="m2.660364 17.669232h-1.294524l1.080324-6.248844h2.251116l.2142 3.707424 1.556352-3.707424h2.35116l-1.104264 6.248844h-1.294524l.818748-4.668804h-.052416l-1.937124 4.668804h-1.461096l-.009576-.195048-.033264-.518868-.04284-.737604-.095004-1.699236-.04284-.74718-.033516-.542556-.009576-.228312h-.071316z"/><g fill-rule="nonzero"><path d="m36.294552 16.612596-.195048 1.056636h-1.19448l.009324-.195048.004788-.17136v-.12852l.009576-.057204-.061992.071316-.071316.071568-.08568.066528-.095256.06678-.099792.06174-.114408.057204-.118944.057204-.118944.047376-.12852.038052-.133056.038052-.13356.02394-.133056.0189-.138096.009576-.133308.004788-.12852-.014364-.12852-.0189-.17136-.04284-.152208-.047628-.133308-.06174-.123732-.071568-.10458-.076104-.090468-.08568-.076104-.090468-.06678-.095004-.056952-.100044-.04284-.104832-.038052-.10458-.02394-.10458-.0189-.10962-.014364-.109368-.009576-.104832v-.10458l.009576-.185724.028476-.176148.04284-.166572.061992-.161784.071316-.152208.090468-.138096.099792-.133308.10962-.118944.123732-.109368.12852-.100044.137844-.090216.147672-.076356.14742-.066528.157248-.052416.156996-.04284.161784-.028476h.009576l.023688-.004788.033264-.004788.047628-.004788.061992-.009576.06678-.004536.071316-.009576.076104-.009576.080892-.009576.08568-.009576.080892-.004788.080892-.009324.076104-.004788.06678-.004788.066528-.004788h.166572l.114156.004788.10962.004788h.10458l.090468.004788.076104.004788.043092.004536h.0189l.009324-.033264.014364-.08568.014364-.099792.009324-.090468-.0189-.10458-.038052-.095256-.061992-.08568-.071316-.071316-.08568-.061992-.099792-.04284-.104832-.028476-.114156-.009576-.133308-.004788-.142884-.004788h-.14742l-.15246.004788-.156996.009576-.152208.014112-.15246.014364-.14742.019152-.142884.0189-.137844.023688-.123732.02394-.114156.02394-.104832.028476-.08568.028476-.066528.033264-.052416.028728.333144-1.147104.10458-.04284.10962-.038052.109368-.033264.114156-.02394.119196-.023688.118944-.0189.123732-.019152.12852-.009576.133308-.009576.137844-.004788.138096-.004788h.4473l.161784.004788.161784.004788.133308.009576.142884.02394.14742.033264.15246.04284.14742.056952.147672.06678.142632.080892.133308.090468.118944.10458.109368.114156.095256.12852.071568.142884.052164.152208.033516.161784v.180936l-.02394.190512z" fill="#fffffe"/><path d="m36.099504 17.702496.028476-.028476.195048-1.056636-.056952-.009576-.1953 1.056636.028728-.028476v.066528l.023688-.004788.004788-.023688z" fill="#fffffe"/><path d="m34.876296 17.669232.028728.033264h1.19448v-.066528h-1.19448l.028224.033264h-.056952l-.004788.033264h.033516z" fill="#fffffe"/><path d="m34.9524 17.136252-.04284-.038052-.0189.076104-.004788.12852v.17136l-.009576.195048h.056952l.009576-.195048.009576-.17136-.004788-.12852v-.038052l-.042588-.038052z" fill="#fffffe"/><path d="m33.100956 17.745336.133308.019152.12852.014364.133308-.004788.138096-.009576.137844-.019152.133308-.023688.133308-.038304.133308-.0378.118944-.047628.123732-.057204.114156-.056952.100044-.06678.100044-.066528.085428-.06678.076356-.076104.06174-.071316-.047376-.038052-.061992.071316-.06678.066528-.085428.06678-.090468.066528-.100044.057204-.228564.114156-.118944.047628-.123732.038052-.133308.038052-.133308.02394-.128268.0189-.138096.009576-.133308.004788-.12852-.014364-.123732-.0189z" fill="#fffffe"/><path d="m31.949316 16.303392.004788.10458.009576.104832.014112.114156.019152.109368.023688.104832.038052.109368.04284.10962.061992.099792.066528.100044.076104.090468.095256.090468.10962.076104.123732.076104.137844.06174.157248.047628.171108.04284.009576-.056952-.17136-.04284-.14742-.047628-.12852-.061992-.123732-.066528-.100044-.076104-.08568-.080892-.076104-.090468-.066528-.090468-.052416-.100044-.04284-.099792-.038052-.100044-.023688-.10458-.019152-.10962-.014364-.10458-.009324-.104832.004536-.10458z" fill="#fffffe"/><path d="m33.657876 14.475888-.166572.028476-.161784.04284-.156996.052164-.15246.06678-.14742.076104-.142884.095256-.12852.100044-.123732.114156-.114156.118944-.100044.133308-.095004.142632-.071568.156996-.06174.162036-.04284.17136-.028476.180684-.014364.185724h.066528l.004788-.185724.028728-.17136.04284-.161784.06174-.161784.071316-.147672.08568-.133056.100044-.133308.10458-.118944.123984-.104832.128268-.099792.133308-.08568.147672-.076356.142632-.066528.157248-.052416.152208-.04284.156996-.028476z" fill="#fffffe"/><path d="m34.638408 14.375844h-.052416l-.066528.009576-.06678.004788-.076104.004536-.080892.009576-.080892.004788-.08568.009576-.080892.009576-.076104.009324-.071316.009576-.06678.004788-.061992.009576-.047628.004788-.038052.004788-.0189.004788h-.009576v.056952h.009576l.028476-.004788.028476-.004788.047628-.004788.061992-.009324.06678-.004788.071316-.009576.076104-.009576.080892-.009324.08568-.009576.080892-.004788.080892-.009576.076104-.004788.06678-.004788h.118944z" fill="#fffffe"/><path d="m35.280756 14.42826.028728-.02394h-.0189l-.043092-.004788-.076104-.004788-.090468-.009324h-.2142l-.114156-.009576h-.114156v.066528h.228312l.10962.009576h.195048l.076104.004788.043092.004788h.0189l.028476-.02394-.028476.02394.023688.004788.004788-.028728z" fill="#fffffe"/><path d="m35.328384 14.123592h-.004788l-.004788.090468-.014112.095256-.014112.085428-.009828.033516.057204.009324.009576-.033264.014112-.08568.014364-.10458.014364-.090468z" fill="#fffffe"/><path d="m34.76214 13.652352v.004788l.109368.004788.100044.028476.095004.04284.081144.057204.066528.066528.057204.080892.038052.08568.0189.100044h.057204l-.019152-.109368-.038052-.104832-.066528-.090468-.076104-.076104-.090468-.066528-.104832-.04284-.109368-.028728-.118944-.014112z" fill="#fffffe"/><path d="m32.720184 13.880916.047628.028476.047628-.023688.061992-.033516.080892-.028476.10458-.028476.114156-.02394.123984-.023688.137844-.023688.138096-.019152.14742-.019152.15246-.014112.152208-.014364.156996-.009576h.442764l.133308.004788v-.056952l-.133308-.004788-.142884-.009576h-.14742l-.15246.009576-.156996.009576-.152208.014112-.15246.014364-.14742.0189-.14742.019152-.138096.023688-.123732.02394-.114156.023688-.104832.028728-.090468.028476-.071316.033264-.057204.033264.047628.028728z" fill="#fffffe"/><path d="m33.07248 12.710124-.0189.023688-.333396 1.147104.057204.009576.333144-1.147104-.0189.023688-.019152-.056952-.014112.004788-.004788.0189z" fill="#fffffe"/><path d="m35.190288 12.491136-.161784-.009576-.161784-.004788h-.4473l-.138096.009576-.137844.004788-.133308.009576-.12852.009324-.12852.019152-.118944.019152-.118944.023688-.114408.02394-.114156.033264-.10962.038052-.10458.04284.019152.056952.10458-.042588.109368-.038304.104832-.033264.114156-.023688.119196-.02394.118692-.0189.119196-.019152.12852-.009324.133308-.009576.137844-.004788h.585396l.161784.004788h.161784z" fill="#fffffe"/><path d="m36.822744 14.10444.02394-.195048v-.180936l-.033264-.166572-.052416-.156996-.076104-.14742-.095256-.133308-.114156-.118944-.118944-.104832-.138096-.090468-.142884-.085428-.152208-.06678-.147672-.057204-.156996-.042588-.14742-.033516-.147672-.023688-.133308-.009576v.057204l.133308.009576.138096.023688.14742.033264.147672.04284.147672.057204.142632.066528.142884.076104.12852.090468.118944.104832.10458.109368.095256.123732.066528.138096.052416.14742.033264.156996v.180936l-.023688.185724z" fill="#fffffe"/><path d="m36.323028 16.617384.499716-2.512944-.056952-.009324-.499716 2.512692z" fill="#fffffe"/><path d="m35.142912 15.370488-.009576-.028476-.019152-.02394-.033264-.014112-.047628-.014364-.052164-.004788-.061992-.004788h-.071316l-.071568.004788-.075852.009576-.076356.009576-.076104.009324-.071568.009576-.071316.014364-.06174.009576-.061992.014112-.047628.009576-.033264.004788-.038052.014364-.047376.014112-.052668.019152-.06174.028476-.057204.028476-.066528.033516-.123732.08568-.061992.052164-.052164.052416-.052416.061992-.04284.066528-.033264.071316-.028728.076356-.014112.08064-.004788.162036.023688.12852.038052.095004.057204.071568.071316.047628.080892.028476.080892.014112.080892.004788.142884-.004788.133308-.014112.123732-.02394.109368-.033264.104832-.038052.090468-.04284.08568-.047628.076104-.056952.066528-.052416.057204-.061992.052164-.056952.043092-.061992.033264-.057204.023688-.056952.019152-.057204.014112-.052164.019152-.133308.023688-.138096.019152-.133308z" fill="#f1ad3d"/><path d="m44.946972 17.017308.009576-.10962.038052-.12852.06678-.114156.080892-.099792.099792-.081144.114156-.056952.123984-.038052.133056-.014364.133308.014364.123732.038052.114156.056952.100044.081144.080892.099792.06678.114156.038052.12852.009324.10962h-.142632l-.004788-.08568-.028476-.104832-.047628-.095004-.061992-.081144-.076104-.066528-.090468-.047628-.10458-.033264-.10962-.009576-.109368.009576-.104832.033264-.090216.047628-.076356.066528-.06174.081144-.047628.095004-.028476.104832-.009576.08568z" fill="#fffffe"/><path d="m45.375372 17.017308v-.285516h.261828l.056952.004536.052416.009576.038052.014364.033264.0189.02394.028728.0189.028476.009576.033264.004788.033264-.004788.04284-.009576.033516-.014112.028476-.009576.009576h-.199836l.0189-.004788.033264-.004788.028728-.009576.023688-.009324.019152-.014364.009576-.014364.009324-.023688v-.033516l-.004788-.023688-.009324-.0189-.014364-.009576-.014364-.009576-.023688-.004788-.02394-.004788h-.195048v.185724z" fill="#fffffe"/><path d="m44.946972 17.017308-.004788.028476.014364.138096.038052.12852.06678.114156.080892.095256.099792.080892.114156.06174.123984.038052.133056.014364.133308-.014364.123732-.038052.114156-.06174.100044-.080892.080892-.095256.06678-.114156.038052-.12852.014112-.138096-.004788-.028476h-.142632l.004788.028476-.009576.114156-.028476.104832-.047628.090468-.061992.08064-.076104.06678-.090468.052416-.10458.033264-.10962.009576-.109368-.009576-.104832-.033264-.090216-.052416-.076356-.06678-.06174-.08064-.047628-.090468-.028476-.104832-.009576-.114156v-.028476z" fill="#fffffe"/><path d="m45.375372 17.017308v.290304h.118944v-.23814h.118944l.142884.23814h.095256l-.142884-.23814h.033264l.033264-.009324.028728-.009576.023688-.019152.009576-.014112h-.199836l-.02394.004788h-.118944v-.004788z" fill="#fffffe"/></g><path d="m44.942184 17.045784.014364-.138096.038052-.12852.06678-.114156.080892-.099792.099792-.081144.114156-.056952.123984-.038052.133056-.014364.133308.014364.123732.038052.114156.056952.100044.081144.080892.099792.06678.114156.038052.12852.014112.138096-.014112.138096-.038052.12852-.06678.114156-.080892.095256-.100044.080892-.114156.06174-.123732.038052-.133308.014364-.133056-.014364-.123984-.038052-.114156-.06174-.099792-.080892-.080892-.095256-.06678-.114156-.038052-.12852zm.552132.261828h-.118944v-.57582h.261828l.056952.004536.052416.009576.038052.014364.033264.0189.02394.028728.0189.028476.009576.033264.004788.033264-.004788.04284-.009576.033516-.014112.028476-.019152.023688-.023688.019152-.028728.009576-.033264.009324h-.033264l.142884.23814h-.095256l-.142884-.23814h-.118944zm.118944-.285516.04284-.009576.033264-.004788.028728-.009576.023688-.009324.019152-.014364.009576-.014364.009324-.023688v-.033516l-.004788-.023688-.009324-.0189-.014364-.009576-.014364-.009576-.023688-.004788-.02394-.004788h-.195048v.190512zm0 .57582.10962-.009576.10458-.033264.090468-.052416.076104-.06678.061992-.08064.047628-.090468.028476-.104832.009576-.114156-.009576-.114156-.028476-.104832-.047628-.095004-.061992-.081144-.076104-.066528-.090468-.047628-.10458-.033264-.10962-.009576-.109368.009576-.104832.033264-.090216.047628-.076356.066528-.06174.081144-.047628.095004-.028476.104832-.009576.114156.009576.114156.028476.104832.047628.090468.06174.08064.076356.06678.090216.052416.104832.033264z"/><path d="m36.651636 17.669232h1.3419l.480816-2.707992.0189-.104832.057204-.209412.038052-.10458.047628-.104832.057204-.099792.06174-.095256.076356-.090468.085428-.080892.095256-.076104.10962-.071316.123732-.057204.137844-.047628.15246-.038052.166572-.028476.185472-.009576h.118944l.2142-1.223208-.133308.009576-.12852.014364-.118944.023688-.114156.033264-.10458.038052-.100044.047628-.095256.052416-.090468.057204-.085428.066528-.081144.06678-.152208.152208-.071316.080892-.071316.090468-.071568.08568-.066528.095004.142884-.861336h-1.337616z" fill="#fffffe" fill-rule="nonzero"/><path d="m36.651636 17.669232h1.3419l.480816-2.707992.0189-.104832.057204-.209412.038052-.10458.047628-.104832.057204-.099792.06174-.095256.076356-.090468.085428-.080892.095256-.076104.10962-.071316.123732-.057204.137844-.047628.15246-.038052.166572-.028476.185472-.009576h.118944l.2142-1.223208-.133308.009576-.12852.014364-.118944.023688-.114156.033264-.10458.038052-.100044.047628-.095256.052416-.090468.057204-.085428.066528-.081144.06678-.152208.152208-.071316.080892-.071316.090468-.071568.08568-.066528.095004.142884-.861336h-1.337616z" stroke="#fffffe" stroke-width=".5"/><path d="m24.048864 17.669232h1.36584l.456876-2.707992.019152-.104832.023688-.099792.02394-.100044.033264-.095256.038052-.095004.047628-.090468.057204-.08568.066528-.080892.076104-.071568.08568-.071316.104832-.056952.114156-.052416.133056-.04284.147672-.038052.161784-.02394.185724-.014112h.014112l.019152.004788.023688.004536h.02394l.023688.004788.019152.004788.014112.004788h.004788l.004788-.0189.014364-.057204.0189-.08568.02394-.10458.033264-.123732.033264-.133308.04284-.133308.04284-.133308.038052-.090468.095256-.180684.047628-.080892.04284-.071568.033264-.056952.023688-.033264.009576-.014364h-.004788l-.0189-.004788-.02394-.004788-.033264-.004788h-.033264l-.038052-.004788-.033264-.004788h-.033264l-.147672.009576-.133308.014364-.123732.023688-.114156.028728-.10962.038052-.099792.047376-.090468.047628-.08568.057204-.080892.06174-.076104.071568-.071316.071316-.071568.080892-.071316.080892-.066528.090468-.142884.19026.17136-.861336h-1.36584z" fill="#fffffe" fill-rule="nonzero"/><path d="m24.048864 17.669232h1.36584l.456876-2.707992.019152-.104832.023688-.099792.02394-.100044.033264-.095256.038052-.095004.047628-.090468.057204-.08568.066528-.080892.076104-.071568.08568-.071316.104832-.056952.114156-.052416.133056-.04284.147672-.038052.161784-.02394.185724-.014112h.014112l.019152.004788.023688.004536h.02394l.023688.004788.019152.004788.014112.004788h.004788l.004788-.0189.014364-.057204.0189-.08568.02394-.10458.033264-.123732.033264-.133308.04284-.133308.04284-.133308.038052-.090468.095256-.180684.047628-.080892.04284-.071568.033264-.056952.023688-.033264.009576-.014364h-.004788l-.0189-.004788-.02394-.004788-.033264-.004788h-.033264l-.038052-.004788-.033264-.004788h-.033264l-.147672.009576-.133308.014364-.123732.023688-.114156.028728-.10962.038052-.099792.047376-.090468.047628-.08568.057204-.080892.06174-.076104.071568-.071316.071316-.071568.080892-.071316.080892-.066528.090468-.142884.19026.17136-.861336h-1.36584z" stroke="#fffffe" stroke-width=".5"/><path d="m44.956548 22.675968v-.0189l.038052-.123732.06678-.109368.080892-.095256.099792-.076356.114156-.056952.123984-.033264.133056-.014364.133308.014364.123732.033264.114156.056952.100044.076356.080892.095256.06678.109368.038052.123732v.0189h-.138096l-.028476-.099792-.047628-.090468-.061992-.080892-.076104-.066528-.090468-.052416-.10458-.033516-.10962-.009324-.109368.009324-.104832.033516-.090216.052416-.076356.066528-.06174.080892-.047628.090468-.028476.099792z" fill="#f1ad3d" fill-rule="nonzero"/><path d="m45.375372 22.675968v-.166572h.31878l.052416.009576.038052.009576.033264.0189.02394.02394.0189.028476.009576.033516.004788.042588h-.095256v-.023688l-.004788-.023688-.009324-.019152-.014364-.009576-.014364-.009324-.023688-.004788-.02394-.004788h-.195048v.095004z" fill="#f1ad3d" fill-rule="nonzero"/><path d="m44.942184 22.7808.014364-.104832h.138096v.004788l-.009576.100044z" fill="#f1ad3d" fill-rule="nonzero"/><path d="m45.375372 22.7808v-.104832h.118944v.095256h.118944l.04284-.009576.033264-.004536.028728-.009576.023688-.009576.019152-.014364.009576-.014112.009324-.02394v-.009576h.095256l-.004788.033516-.009576.028476-.014112.023688-.019152.019152z" fill="#f1ad3d" fill-rule="nonzero"/><path d="m46.141704 22.7808-.009576-.100044v-.004788h.138096l.014112.104832z" fill="#f1ad3d" fill-rule="nonzero"/><path d="m44.942184 22.7808v.014364l.014364.137844.038052.12852.06678.114408.080892.099792.099792.080892.114156.057204.123984.038052.133056.014364.133308-.014364.123732-.038052.114156-.057204.100044-.080892.080892-.099792.06678-.114408.038052-.12852.014112-.137844v-.014364h-.142632v.014364l-.009576.114156-.028476.10458-.047628.090468-.061992.080892-.076104.06678-.090468.052164-.10458.033264-.10962.009576-.109368-.009576-.104832-.033264-.090216-.052164-.076356-.06678-.06174-.080892-.047628-.090468-.028476-.10458-.009576-.114156v-.014364z" fill="#f1ad3d" fill-rule="nonzero"/><path d="m45.375372 22.7808v.27594h.118944v-.237888h.118944l.142884.237888h.095256l-.142884-.237888h.033264l.033264-.009576.028728-.009576.023688-.0189z" fill="#f1ad3d" fill-rule="nonzero"/></g></svg>