<svg height="50" viewBox="0 0 110 50" width="110" xmlns="http://www.w3.org/2000/svg"><g fill="none" transform="translate(19 16)"><path d="m26.9561016 8.81522631c0-4.85648998-6.0342092-8.81522631-13.4775654-8.81522631-7.44316211 0-13.47698299 3.95873633-13.47698299 8.81522631 0 .12561562-.00155321.47217493-.00155321.51605303 0 5.15218176 5.27391436 9.32506646 13.4767888 9.32506646 8.253742 0 13.4793128-4.1717198 13.4793128-9.32390156 0-.18017201 0-.28365443 0-.51721793" fill="#2a3468"/><path d="m26.4398544 8.81114914c0 4.57846596-5.8016164 8.29004816-12.9589884 8.29004816-7.15698371 0-12.95860015-3.7115822-12.95860015-8.29004816 0-4.57885422 5.80161644-8.29063064 12.95860015-8.29063064 7.157372 0 12.9589884 3.71177642 12.9589884 8.29063064" fill="#2491c4"/><path d="m9.1780943 6.19535441c-.00679529.01320226-.13609977.14677806-.05222659.25433764.20444087.26132708.83601367.41121156 1.47477009.26773406.3803415-.08523223.8678544-.47314568 1.3402234-.84785687.5115876-.40655193 1.0194863-.81368631 1.5299089-.97560814.5403219-.17182353.8864929-.09824035 1.1153968-.02892848.2510371.07474808.5459523.24016463 1.0167681.59313092.8866871.6667141 4.4522679 3.77875847 5.0681145 4.31675054.4962496-.22405011 2.7014152-1.17325373 5.6977457-1.83375501-.2603563-1.59747339-1.2320815-3.05904118-2.7056866-4.25578717-2.0539221.86280649-4.5642929 1.31284822-7.0189424.11416072-.0124257-.00524208-1.3410001-.63409676-2.6513244-.60283847-1.9475274.045043-2.7913071.8880461-3.684207 1.78036352z" fill="#fffffe"/><path d="m20.5262129 10.1137074c-.0415483-.037277-4.1921057-3.66925742-5.1325725-4.3759666-.5442049-.40810514-.846692-.51197586-1.164517-.55255339-.1656106-.0217449-.3939321.00912509-.5539124.05300319-.4374219.11920863-1.0091962.50129756-1.5170949.90416062-.5257606.41858929-1.0216219.81290971-1.4813712.91600383-.5876947.13163429-1.30547048-.02388056-1.63280886-.24521256-.1327992-.08911525-.22599162-.19240352-.27103462-.29705084-.12095599-.28054801.10231751-.50459812.13881788-.54226339l1.1454902-1.23887673c.1329933-.13299335.2671516-.26579255.4044162-.39684439-.3696632.04814942-.71136878.14250674-1.04375507.23492256-.41509457.11687883-.81426877.22793313-1.21810259.22754483-.16852296 0-1.07171283-.14774882-1.24314805-.19453918-1.03657152-.28365443-1.94636252-.55993112-3.30522449-1.19441618-1.62814924 1.21227806-2.71714149 2.72801394-3.03166591 4.39712901.23395181.06193413.6109928.17415333.76922577.20948879 3.6849836.81892839 4.83260942 1.66309639 5.04073915 1.83938539.22540917-.25103708.55041773-.4094642.91347987-.4094642.40791099.0003883.77505029.20502333.99851795.5216834.21084785-.1663873.50207416-.30889404.8781444-.30850574.17085277 0 .34811252.03145244.52711963.09241582.41567704.14250674.63021374.41936586.74146214.66962636.1395945-.0629049.3110297-.1091128.5129467-.1087245.198228 0 .4048045.0454313.6127401.1353232.6793339.2916146.7851462.958717.7236003 1.4617619.0483436-.0056304.0970755-.0079602.1463898-.0079602.805532.0007766 1.4607912.6552592 1.4604029 1.4615678 0 .2490956-.0636815.483824-.1745417.6896239.2190022.1232858.7777684.4020865 1.2683877.339764.3917965-.0493143.5407102-.1834725.5939075-.2586089.0365004-.0518383.0751364-.1126075.0392185-.155709l-1.0396779-1.1551977s-.1712411-.1619219-.1147432-.2244384c.0588277-.0640698.1644458.0281518.239388.0906684.5290612.4416933 1.1751953 1.1087957 1.1751953 1.1087957.0108724.0071835.0537798.0918333.2925853.1345465.2058.0368887.5696387.0151438.8218407-.191821.0636815-.0524208.1271688-.1176555.180172-.1846375-.0040772.0029122-.0075719.0075719-.0114549.0091251.2657925-.3401524-.0295109-.684576-.0295109-.684576l-1.2138313-1.362745s-.1735709-.1603686-.114549-.225215c.052809-.0559155.1644458.0287343.2405529.0916392.3842246.3215138.9272646.8664953 1.4477831 1.3761414.1015409.0743598.5591545.3576259 1.1647111-.0405775.3673334-.2407471.4413049-.5368272.4310149-.7606832-.0256279-.2956917-.2564733-.5061513-.2564733-.5061513l-1.6582426-1.66697941s-.1749299-.14988447-.11319-.22521501c.0506734-.06368149.1644458.02795773.2389998.09008601.5282845.44227571 1.9582057 1.75318241 1.9582057 1.75318241.0201917.0143671.5143057.3659744 1.1249102-.0227157.2182255-.1395944.3576259-.350054.3696632-.5942958.0207742-.4240255-.2786065-.675645-.2786065-.675645" fill="#fffffe"/><path d="m12.4840954 12.2268455c-.2572499-.0029123-.5383804.1494962-.5750749.1275571-.0203858-.0137847.0157262-.1168788.0398009-.1764831.0246572-.0590219.3632563-1.0779257-.4620791-1.4318627-.6315727-.271423-1.0175447.0341705-1.1503439.1718235-.0349471.036112-.0504792.0333939-.0543622-.012814-.012814-.1832784-.0949398-.679528-.63992131-.8461095-.77912746-.23841726-1.28003672.3053993-1.40701139.5016859-.05688621-.4440231-.432374-.78864088-.89212327-.78903138-.4995502-.0007744-.90474308.40422428-.90532567.90358038-.00019401.499356.40480471.9043548.90416076.9043548.24288275.0003883.46304984-.0966872.62535997-.2523962.00504792.0048538.00718358.0132023.00446547.0306759-.03785942.2232735-.10794789 1.0363773.7430154 1.3670163.34131724.132605.63157279.0341705.87231988-.1347407.07164167-.0506734.08329072-.0291227.07319488.0380535-.03086999.2089064.00815433.6568124.63545578.9111501.477417.1937626.7599066-.0044655.9449323-.1755124.0805726-.0735832.1027058-.0619341.106783.0518383.0227157.6049741.5251781 1.0849151 1.1353943 1.0856921.6286606.0003879 1.1381125-.507705 1.1383076-1.1359772.0005815-.6288547-.5084821-1.1315113-1.1369485-1.1385007" fill="#fffffe"/><g fill="#2a3468"><path d="m12.4840954 14.4201679c-.5698328-.0003883-1.0330768-.4432464-1.053851-1.0074489-.0015532-.0481494-.0064069-.1766773-.1153256-.1766773-.0446547 0-.083679.0267928-.1283337.0669821-.1252273.1161022-.2848193.2343401-.5178004.2343401-.1056181 0-.2203612-.0246572-.3413172-.0741657-.60167359-.2434651-.61002208-.6568124-.58555906-.8230055.00679528-.0442664.00893094-.0906685-.02155075-.1261981l-.03688867-.0333939h-.03766527c-.03048169 0-.06193413.0124256-.10464732.042519-.17395918.1225092-.34092893.1815311-.5106168.1815311-.09338657 0-.18910295-.0184444-.28501348-.0557213-.79213557-.3083116-.72961899-1.0555983-.69098297-1.2808133.00563038-.0456255-.00543622-.0807668-.03455885-.1044532l-.05591545-.0462079-.05222659.0500909c-.1545441.1491079-.35626685.2304571-.56866791.2304571-.45373059-.0005825-.82281141-.369275-.82242372-.8228114.00038892-.4539248.36985803-.82242312.82358862-.82164896.4098525 0 .75893577.30831406.81135651.71777826l.02815188.2207495.12134429-.1869673c.01359056-.0215507.34597686-.5244015.95716381-.5236249.11610223 0 .23628162.0184443.35704346.0561096.48712457.1485254.56963867.5904128.58245267.7742737.0087367.1073654.0848439.1122192.0997935.1122192.0421307 0 .0730007-.0265987.0951339-.0497026.0918334-.0959105.292003-.2555026.6055566-.2555026.1432834.0007766.2958859.0345589.4535365.1023175.7740795.3321922.4228606 1.3157605.4187834 1.3260505-.0665938.1630868-.0693119.2351167-.0066011.2768592l.0304817.0143671h.0225215c.0349471 0 .0782428-.0151437.1500786-.0394126.1054239-.0363062.2644335-.0910568.4129589-.0906685h.0003883c.5828409.0062129 1.0569574.4805235 1.0567633 1.0569574-.0005826.5820643-.474699 1.0548217-1.0571516 1.0548217zm8.2028744-4.74155265c-1.2784835-1.11559093-4.2334598-3.6845953-5.0337497-4.2852981-.4572253-.3438412-.7690316-.52556642-1.0427843-.60710979-.1228975-.03708282-.2931679-.07921356-.5123642-.07960186-.2034701 0-.422084.03669452-.6504054.1095011-.517218.16347503-1.0323002.57313338-1.5306855.96939531l-.0256279.01999754c-.4644089.36908082-.9441557.75078143-1.3072179.8319365-.1584271.03572376-.3215138.05436225-.4840181.05436225-.40674608-.00077661-.77194388-.11804374-.90882025-.29277952-.02271565-.02892848-.00815433-.07552469.04465471-.1430892l.00698943-.00854264 1.12471601-1.21247221c.8808625-.88086252 1.7129932-1.71241071 3.6284857-1.75628881.0314524-.00116491.0638756-.00155321.0955222-.00155321 1.1920864.00077661 2.3839786.53430321 2.5177486.59604319 1.1177266.5453698 2.2715652.8224231 3.4314225.82319971 1.2089775.0003883 2.4562027-.2987982 3.7674978-.90241327-.1463898-.1232858-.2987982-.24307689-.4556722-.36073232-1.1520912.4995502-2.2496261.75155803-3.308525.75136388-1.0814204-.0007766-2.1622583-.26055047-3.2112555-.77252633-.055333-.02659867-1.3714817-.64691071-2.7406337-.64768732-.0359179 0-.0722241.00077661-.1081421.00116491-1.6087341.03785942-2.5150304.60905129-3.12447 1.10957225-.5925484.01436716-1.10394185.1572622-1.5590315.28443103-.40596948.11299581-.75641181.21084785-1.09850565.21045955-.14095354 0-.39432043-.01300811-.41723023-.01378472-.39315552-.01164905-2.37427105-.49780284-3.9501937-1.09423433-.16095107.11377242-.31568932.2312337-.46654455.35102479 1.64639942.67506259 3.64984229 1.19713429 4.28219169 1.23810012.1759007.0114549.36345044.03145244.55100019.03184075.41820098 0 .83581951-.11746128 1.23984748-.23045709.23841727-.0671762.50188001-.13998278.77873917-.19298597-.0737773.07280658-.1475547.14619561-.22152616.22016709l-1.1429662 1.23615862c-.08989185.09105676-.28520763.33335705-.1564856.63176695.05125583.12037354.15512655.23550501.30054555.33335705.27239368.18366672.75990652.30753498 1.21286051.30792328.1716294 0 .3343278-.01708527.4840181-.05086753.4787761-.10717128.9812386-.50770453 1.5136003-.93095344.4242196-.33665762 1.0266698-.76476029 1.4879723-.89018176.1291103-.03533546.2873433-.05688621.4145121-.05688621.0382477.00038831.0739715.00135906.1073654.00601868.3048169.03863603.5995379.14250674 1.1256868.53721547.9379429.70457353 5.0890827 4.33616566 5.1296602 4.37188936.0027181.0023298.2675399.2304571.2490956.6102162-.0099017.2114303-.127363.3995625-.3316097.5300319-.1770656.1122192-.3601499.1694937-.5449815.1694937-.2772474-.0003883-.4684861-.1304694-.4807176-.1392061-.0153379-.0124257-1.4376872-1.3165371-1.9607296-1.75454149-.0834849-.06892356-.1644458-.131246-.2461833-.131246-.0438781-.0003883-.0825142.01825019-.1087245.05125584-.0825142.10134675.0099017.24191199.118432.33452195l1.661349 1.6695034c.0023298.0019415.2069649.1937625.2294864.4502359.0130081.2766649-.1194028.5080928-.3945146.6886531-.1958982.1289162-.3945146.1945392-.5888596.1945392-.2549201 0-.4341214-.1161022-.4737282-.1438658l-.2384172-.2347284c-.4354804-.428491-.8851339-.8717375-1.2144137-1.1462668-.0801844-.0667879-.165999-.1285279-.2475424-.1285279-.0403834 0-.0768838.0151438-.1046473.0442664-.0376653.0417425-.0636815.1168789.0297051.2413296.038636.0510616.0840673.0935807.0840673.0935807l1.212278 1.3617742c.0100959.0120374.2498722.2968567.0273753.5808994l-.0429073.0541681c-.0363062.0401893-.0755247.0770779-.1126075.1089187-.2069649.1694937-.4832416.1877439-.5925485.1877439-.0584394 0-.1149373-.005048-.1638633-.014173-.119597-.0211625-.1999754-.0545564-.2388056-.100376l-.0145613-.0155321c-.0663996-.0683411-.6775866-.6921479-1.1831555-1.1142319-.0665937-.0561096-.1496903-.1261981-.2356991-.1261981-.0425191 0-.0801843.016697-.1095011.0489261-.0999877.1095011.0500909.2733644.1137724.333357l1.0342417 1.1402481c-.0011649.0100959-.0143672.0337823-.0394126.0697002-.0368887.0512558-.1623102.1766773-.5374096.2236618-.045043.0062128-.0914451.0083485-.1372647.0083485-.3867486 0-.7993192-.1875498-1.0119144-.3005456.0966872-.2044409.1469722-.4292676.1469722-.6552592.0003883-.8509633-.6907888-1.5434994-1.5417521-1.5438877-.018056 0-.0374711.0003883-.0557213.0011649.0279578-.3886901-.0269869-1.1243278-.7822338-1.4481714-.2172549-.093969-.4341214-.1421185-.6447751-.1421185-.1650282 0-.3234553.0283461-.4727574.0856206-.1564856-.3040403-.4160653-.52556644-.75524687-.64108621-.18696729-.06484639-.37335213-.09746374-.55352414-.09746374-.31413612 0-.60380922.09241582-.86202988.2758884-.24734822-.30753499-.62108865-.48984266-1.01463247-.48984266-.34442366 0-.67564505.13804127-.92105175.38111817-.32190215-.24579501-1.59863831-1.05676321-5.01549955-1.83278426-.16561069-.03747112-.5453698-.14619561-.77796255-.21453671-.03844187.18502578-.06814696.37199307-.08736789.56090187 0 0 .63021373.15085523.75408199.17861881 3.49083273.77543859 4.64408892 1.58155303 4.8390164 1.73396143-.0660113.1586213-.10018185.3294741-.10057015.5020742-.0003883.7208822.58594734 1.3081886 1.30780029 1.3089652.08076676 0 .16095107-.0071836.23977633-.0215508.10872449.5304202.4560604.932895.98667474 1.1394715.15512655.0596043.31219461.0902802.46615625.0902802.0995994 0 .19978125-.0124257.29782744-.0374711.09785205.2490955.31860159.5593486.81155071.7595182.1727942.0697001.3457827.1062005.5137232.1062005.1372646 0 .271617-.0242688.3995625-.0714475.2362816.5756573.7985425.9567808 1.4254557.9567808.4152887.0007713.8142688-.1687224 1.1051068-.4679089.2490955.1384296.774662.38869 1.3058587.3894666.0687295 0 .1331875-.0050479.1976456-.0126198.527508-.0665937.7731088-.2729761.8859105-.4333447.0201917-.0277636.038636-.0576628.0541681-.0883387.1244507.0357238.2615212.0648464.418201.0652347.288314 0 .5645907-.0982403.844168-.3019046.2745293-.1978397.4696509-.4818824.4976087-.7237944.0005824-.0034948.0011649-.0067953.0015532-.0106783.0926099.0194151.1875497.0291226.2822953.0291226.2966626 0 .5884713-.0924158.8670778-.2753059.537798-.352578.6311845-.8129098.6222536-1.1144261.0941632.0198034.1902678.0298993.2857901.0298993.2784123 0 .5517768-.0836791.8123272-.2498722.3333571-.2129835.5339149-.539157.5643966-.9187219.0207742-.2582207-.0431015-.5183829-.1792012-.7420447.90086-.38830174 2.9600242-1.13947147 5.3845803-1.68600618-.0145613-.1881322-.0417424-.37354629-.0753305-.55857207-2.9338139.65118203-5.122865 1.5986383-5.6711471 1.8424918z"/><path d="m71.6748728 6.69509876c-.2362822.31316536-.5737158.46984512-1.0150209.46984512-.4407225 0-.7800984-.15667976-1.0179332-.46984512-.2380292-.31316536-.356655-.75874162-.356655-1.33634047 0-.5766281.1186258-1.02142775.356655-1.33284575.2378348-.31161216.5772107-.46751531 1.0179332-.46751531.4413051 0 .7787387.15590315 1.0150209.46751531.2358933.311418.3541309.75621765.3541309 1.33284575 0 .57759885-.1182376 1.02317511-.3541309 1.33634047zm1.2054825-3.49665725c-.4865424-.60963375-1.2247038-.91425647-2.2160378-.91425647-.9897813 0-1.7283316.30462272-2.2144851.91425647-.4869304.60943959-.7303956 1.32954519-.7303956 2.16031678 0 .84572121.2434652 1.56835077.7303956 2.16983017.4861535.59953791 1.2247038.90066591 2.2144851.90066591.991334 0 1.7294954-.301128 2.2160378-.90066591.4869305-.6014794.7296191-1.32410896.7296191-2.16983017 0-.83077159-.2426886-1.55087719-.7296191-2.16031678z"/><path d="m59.6815906 5.98334165c-.01029.50595718-.1551266.8540697-.433539 1.04511416-.2782182.19104446-.5824526.28676084-.9119266.28676084-.2089063 0-.3855836-.05805111-.5311968-.17260012-.1452249-.11493732-.2176431-.30190461-.2176431-.56012528 0-.2896731.1186262-.50323906.356461-.64166864.1417301-.08076676.3725755-.15046693.6954484-.20579992l.3446178-.06406979c.1714352-.03261735.3063701-.06717621.4049987-.10464733.0997936-.03611206.1960924-.08426147.2927796-.14483655zm.7663135-3.29454619c-.4933374-.25026047-1.0579282-.37645854-1.6935781-.37645854-.9763848 0-1.6658145.25511425-2.0669302.76378954-.2525903.32597932-.3939322.74126804-.4269378 1.24664276h1.4590438c.0361121-.2228852.1077537-.3995625.2155075-.53042019.1504669-.17667729.4059695-.26501594.7678667-.26501594.3234554 0 .5676972.0442664.7348611.13571146.165999.08989186.2498721.25375519.2498721.48984266 0 .19492748-.108142.33762837-.3261734.43004419-.1213443.05319733-.3222905.09746373-.6043917.13279919l-.5172179.06368149c-.5876947.07397148-1.0336593.19822804-1.3359522.37160477-.5525534.31860159-.8286359.8323248-.8286359 1.54330531 0 .54769961.1710469.97153097.5150822 1.27032917.342288.2987982.778545.42441381 1.3048881.44868267 3.2997882.14755466 3.2625113-1.73900938 3.2927988-2.13119415v-2.17118923c0-.69622504-.2471541-1.17072977-.7401031-1.42215516z"/><path d="m52.9233928 3.60577004c.3772351 0 .6540943.11649053.8331014.34927743.1228975.17260012.1993929.366751.2294863.58206432h1.6275668c-.0891153-.82106405-.3766527-1.39439158-.8616416-1.71940015-.4869304-.32345535-1.1103489-.48634794-1.872391-.48634794-.8965888 0-1.600774.27569424-2.1092551.82514122-.5100344.55061188-.7647603 1.31944934-.7647603 2.3084539 0 .87562044.2304571 1.58931906.6915654 2.13915433.4614966.54983528 1.1812139.82514122 2.1587636.82514122.9791028 0 1.7182352-.32986233 2.2162322-.98939286.3123887-.40829928.4875128-.84222649.5244015-1.30100501h-1.6223247c-.0330057.30326367-.1277513.55061188-.2848193.74087974-.1564856.18968541-.4201425.28520764-.7933005.28520764-.5255664 0-.8829982-.23919388-1.0730719-.7197173-.1038707-.25589085-.1566798-.59526658-.1566798-1.01735058 0-.44246984.0528091-.79757179.1566798-1.0658883.1976456-.50362737.5645907-.75621766 1.1004472-.75621766"/><path d="m49.5690481 2.3313637c-3.3434722 0-3.1458266 2.96080084-3.1458266 2.96080084v3.00700875h1.5174832v-2.82042976c0-.46227323.0584394-.80436707.1741533-1.02705813.2081298-.39432042.6146817-.59216016 1.2215973-.59216016.0456255 0 .1058123.00213566.1797838.00563037.0739714.00388302.1578446.01029.2545318.02155075v-1.54408191c-.0675645-.00446547-.1110543-.00640698-.1300811-.00834848-.0194151-.00155321-.0432957-.00291227-.0716417-.00291227"/><path d="m41.9558099 3.90262673c.2133718-.21919634.5129466-.32908573.8998893-.32908573.3556844 0 .6533176.10309411.8940647.3110297.2395822.20657653.3739346.5106168.4009216.90998515h-2.5961855c.0543622-.37509949.1885205-.67195618.4013099-.89192912zm2.039749 2.82547768c-.0636814.09066846-.1324109.16871711-.2079355.22948633-.2141485.176289-.5053748.23006879-.8482452.23006879-.324232 0-.577793-.04931432-.8076677-.19415088-.3784-.23239859-.5915777-.62633072-.6142933-1.20431787h4.1985126c.0056304-.49741454-.01029-.87853271-.0504792-1.14393695-.0697002-.45140079-.2232735-.84941008-.4587785-1.19189222-.2621037-.38830175-.5948783-.67234448-.9965764-.8532931-.4015041-.1790071-.853099-.26909311-1.3543965-.26909311-.8457213 0-1.5320446.26656915-2.061494.79893085-.5292553.5335266-.7950479 1.2982869-.7950479 2.29680485 0 1.0658883.293362 1.83491991.8804743 2.30787144.5857531.47236908 1.2635338.7094273 2.0302356.7094273.929012 0 1.652224-.28015971 2.168277-.84106159.2782182-.29510933.4527599-.58691809.526343-.87484384z"/><path d="m39.390106 8.29878498h-1.3860431v-3.49025027c0-.31879573-.1054239-1.07714905-1.0196803-1.07714905-.6092455 0-1.0503563.43975173-1.0503563 1.07714905v3.49025027h-1.3874021v-3.49025027c0-.31879573-.0947457-1.07714905-1.0084197-1.07714905-.6201179 0-1.0511328.43975173-1.0511328 1.07714905v3.49025027h-1.3868197v-3.45685632c0-1.44098779.9559989-2.53075665 2.4379525-2.53075665.7356377 0 1.3340107.30908819 1.7232832.80397877.4094642-.49489058 1.0187096-.80397877 1.7228949-.80397877 1.5130177 0 2.4057234 1.04550246 2.4057234 2.53075665z"/><path d="m65.4480657 6.70771857c-.2215262.31724253-.546923.47586379-.9726959.47586379-.4273261 0-.7451511-.15998032-.9544457-.47858191-.2092946-.31976649-.313942-.78456368-.313942-1.31653708 0-.49372567.1023175-.90707288.3086999-1.24004163.2058-.33296875.528867-.50013266.9699778-.50013266.2892848 0 .5426517.09163922.761848.27491764.3560727.30326367.5339149.84746857.5339149 1.55204209 0 .50440398-.1112484.91503308-.333357 1.23246976zm1.8201644-6.19884913s-1.5285498-.16308673-1.5285498 1.0643351l-.0011649 1.62562527c-.1691054-.27142292-.3890784-.48421228-.6605013-.63700902-.2708405-.15318504-.5810936-.23045709-.9309534-.23045709-.7581592 0-1.3621626.28248952-1.815699.84630366-.4535365.56420245-.6791398 1.37769461-.6791398 2.36087464 0 .85329309.2298747 1.5528187.6898181 2.0974119.4599434.5442049 1.3619684.78301048 2.163229.78301048 2.7940253 0 2.7617962-2.3962101 2.7617962-2.3962101z"/></g><path d="m44.7232364 13.8237364c0-.5721626-.1114426-1.0121085-.3352985-1.3208084-.2228852-.3067584-.5426517-.4622732-.9589112-.4622732-.4013099 0-.7136986.1555148-.9377487.4622732-.2075473.279189-.3110297.7204939-.3110297 1.3208084 0 .5593487.1110543.9756082.3345219 1.2547971.2224969.3086999.5426517.4622733.9589112.4622733.3861661 0 .6913713-.1535734.9142565-.4622733.2238559-.3083116.3352985-.7251535.3352985-1.2547971m-2.5429881 4.1055144c0 .2052175-.0747481.3815065-.2240501.5278962-.147943.1471664-.3265618.2203613-.5350799.2203613h-.7575767v-5.2723612c0-1.0255049.3453944-1.667756.9142565-2.1016832.3756819-.286955.9358072-.5607077 1.9849985-.5607077.7084566 0 1.5380633.2749176 1.9863576.8212582.5028508.6146817.7125337 1.2992576.7125337 2.1937107 0 .9249348-.2230793 1.6712508-.6690439 2.2449666-.4459645.5581838-1.0189038.8360137-1.7176528.8360137-.3716047 0-.6985548-.0660113-.9810443-.1970632-.2984099-.1471663-.5350798-.3743229-.7136986-.6830228z" fill="#2491c4"/><path d="m53.8176517 13.824513c0 1.0113319.2921971 1.5718455.8765912 1.6825115.5832292.108142 1.0148266-.0273753 1.2922682-.4077168.1316343-.1603687.2261858-.4141238.284431-.757965.0580511-.3442295.0627108-.6851585.0114549-1.0223986-.0504792-.3378225-.1718235-.6385622-.361703-.9024132-.1892971-.2632686-.4673212-.3958736-.832519-.3958736-.4966379 0-.8319365.1842491-1.0074489.5490586-.176289.3675276-.2630744.784952-.2630744 1.2547971m2.497751 2.5280386v-.3723814c-.2628803.4112115-.6177881.6659375-1.062976.7694199-.4459646.1021234-.8872695.065623-1.3244973-.110666-.438781-.1751241-.8152395-.5016859-1.1295698-.9775496-.3133595-.4781937-.4702334-1.1047185-.4702334-1.8820986 0-.9076554.2081297-1.6452345.6238067-2.209437.4166478-.5640083 1.0851093-.8214523 2.0051903-.8468861.9066846-.0238806 1.43361.1813369 1.9498572.5723568.5642024.4281027.8979577 1.0851092.8979577 2.1106141v3.1021427c.0021258.9870631-.6861391 2.8163526-2.8478149 2.6612261-1.3394469-.0970755-2.0826565-.6465225-2.4975569-1.8914179h1.5992208c.1166846.2044409.2953035.3620914.5376037.4713984.2397764.1114426.4820767.1397886.7212705.0883386.2407471-.0512558.4603318-.1945392.658754-.4281027.1958982-.2347284.3090882-.5871122.3389874-1.0569573" fill="#2491c4"/><path d="m50.2633316 14.4360883c-.0095134.5063455-.1547382.8536814-.4327623 1.0451141-.2778299.1906562-.5820643.2863726-.9119266.2863726-.2089064 0-.3855837-.0580511-.5308085-.1726001-.1456132-.1145491-.2184198-.3019047-.2184198-.5601253 0-.2892848.1190145-.5032391.3572377-.6414745.1417301-.0807668.3723813-.1506611.6950601-.2056058l.3442295-.0640698c.1722118-.0326173.3071467-.0671762.4046104-.1046473.1001819-.0361121.1964807-.0842615.2927795-.1452249zm.7670901-3.2943521c-.4937256-.249678-1.0583164-.3762644-1.6931897-.3762644-.9775497 0-1.6662029.2549201-2.0677069.7634013-.2518136.325591-.3939321.7408797-.4265494 1.2470311h1.4598204c.0357238-.2232736.1069771-.3999508.2151192-.5304202.1504669-.1766773.4063577-.2654043.7674784-.2654043.3242319 0 .5680854.0446547.734861.1353232.165999.0902801.2498722.2537552.2498722.4906192 0 .1945392-.1085303.3380167-.3261735.4300442-.120956.0528091-.3219021.0970755-.6043916.1324109l-.517218.0632932c-.5873064.0743598-1.0336592.1988105-1.3351755.3719931-.55333.3182133-.8288301.8323248-.8288301 1.542917 0 .5476996.1704645.971531.5148881 1.2703292.3420938.2984098.7781567.4244138 1.3044997.4486826 3.2990117.1475547 3.262123-1.7390094 3.2922164-2.1311941v-2.1711893c0-.6966133-.2461833-1.1699531-.7395207-1.4215727z" fill="#2491c4"/><path d="m62.338157 15.115228c-.235505.3137479-.5737159.4702335-1.0142442.4702335-.4411108 0-.7808748-.1564856-1.017933-.4702335-.2388056-.3123887-.3570435-.757965-.3570435-1.3351755 0-.5770164.1182379-1.0214278.3570435-1.3328458.2370582-.3120004.5768222-.467127 1.017933-.467127.4405283 0 .7787392.1551266 1.0142442.467127.2366699.311418.3543253.7558294.3543253 1.3328458 0 .5772105-.1176554 1.0227868-.3543253 1.3351755m1.2062594-3.4954923c-.4873187-.6100221-1.2258687-.9142565-2.2168147-.9142565-.9890046 0-1.7279428.3042344-2.2144849.9142565-.4869304.6090513-.7300073 1.3287686-.7300073 2.1603168 0 .8453329.2430769 1.5677683.7300073 2.1694418.4865421.5991496 1.2254803.8998894 2.2144849.8998894.990946 0 1.729496-.3007398 2.2168147-.8998894.4861537-.6016735.728454-1.3241089.728454-2.1694418 0-.8315482-.2423003-1.5512655-.728454-2.1603168" fill="#2491c4"/></g></svg>