<svg height="50" viewBox="0 0 110 50" width="110" xmlns="http://www.w3.org/2000/svg"><g fill="none" transform="translate(27 13)"><path d="m.1548878 1.71913171c0-.9250244.75661464-1.68194634 1.68194635-1.68194634h50.64646835c.9253317 0 1.6819463.75692194 1.6819463 1.68194634v21.52940489c0 .9253317-.7566146 1.6819463-1.6819463 1.6819463h-50.64646835c-.92533171 0-1.68194635-.7566146-1.68194635-1.6819463z" fill="#e39e39"/><path d="m.1548878 22.4860829h54.010361v-20.00480485h-54.010361z" fill="#fffffe"/><g fill="#d8232a"><path d="m45.9273073 7.67678052c-2.4711366 0-4.4856 2.01477068-4.4856 4.48590728 0 2.4702147 2.0144634 4.4849853 4.4856 4.4849853 2.470522 0 4.4849854-2.0147706 4.4849854-4.4849853 0-2.4711366-2.0144634-4.48590728-4.4849854-4.48590728"/><path d="m8.9564488 7.67678052c-2.47144395 0-4.48590734 2.01477068-4.48590734 4.48590728 0 2.4702147 2.01446339 4.4849853 4.48590734 4.4849853 2.4702146 0 4.4849854-2.0147706 4.4849854-4.4849853 0-2.4711366-2.0147708-4.48590728-4.4849854-4.48590728"/><path d="m45.5751219 3.72929269c-4.1521609-.09557562-6.104239 2.5670195-8.9377024 5.85100977l-2.6724293 3.09744874 4.2320635 5.0664293c1.0083073 1.5568683-.9161122 3.1017512-2.1100391 1.6773366l-3.9127609-4.6675317-3.812883 4.4201415c-1.2142097 1.4068975-3.1168097-.1650294-2.0869902-1.7071464l4.1392537-4.8132-2.7117659-3.23512684 1.7443317-2.16043903 2.7578634 3.31287807 2.3774049-2.76523904c1.1662683-1.35588292 2.3558927-3.15276585 3.8977024-4.07656097h-38.3242829v17.50939021h8.96044391c4.15277559 0 6.03785849-2.4831219 8.79418539-5.8313414l2.6011317-3.1589122-4.3488439-4.96685856c-1.0430342-1.53320489.8448146-3.12172684 2.071317-1.72527805l4.0190927 4.57625851 3.711161-4.50711218c1.1810195-1.43517073 3.118961.09311708 2.1250975 1.65859024l-4.0270829 4.90816094 2.7858293 3.1715123-1.7553951 2.0786926-2.7729219-3.1275658-2.312561 2.8187122c-1.1352293 1.3826195-2.2842878 3.1456975-3.8045854 4.1051414h37.9634927v-17.50939021zm-29.5328634 8.43339511c0 3.9032341-3.1825756 7.0864244-7.0858097 7.0864244-3.90415611 0-7.08703905-3.1831903-7.08703905-7.0864244 0-3.90415609 3.18288294-7.0867317 7.08703905-7.0867317 3.9032341 0 7.0858097 3.18257561 7.0858097 7.0867317zm29.8850488 7.0864244c-3.9035415 0-7.087039-3.1831903-7.087039-7.0864244 0-3.90415609 3.1834975-7.0867317 7.087039-7.0867317s7.0861171 3.18257561 7.0861171 7.0867317c0 3.9032341-3.1825756 7.0864244-7.0861171 7.0864244z"/></g></g></svg>