<svg height="50" viewBox="0 0 110 50" width="110" xmlns="http://www.w3.org/2000/svg" xmlns:xlink="http://www.w3.org/1999/xlink"><mask id="a" fill="#fff"/><g fill="none" fill-rule="nonzero" transform="translate(17 15)"><path d="m2.97207043.12863952h5.12560507c2.7515153 0 3.7876164 1.3928893 3.6276769 3.44273445-.2637877 3.37910262-2.30688607 5.24770942-5.01672977 5.24770942h-1.36815093c-.37134013 0-.62123736.24539938-.72243978.91254157l-.58697405 3.87400234c-.03796744.2514847-.17039049.3992535-.36922348.417245h-3.21387146c-.30241665 0-.40996903-.2313765-.33085916-.7324939l1.96266555-12.42659918c.07858071-.49807467.35109965-.7351397.89230111-.7351397" fill="#00a2d3" mask="url(#a)" transform="translate(3.57185 4.147844)"/><path d="m44.2036308 7.86584916h-1.7132975c-.3550683 0-.4993976.25981904-.3864213.59028132l2.1350405 6.25259002-2.1039521 2.9737637c-.1755498.2481774-.0400841.4753207.2076965.4753207h1.9330324c.2886584 0 .4292835-.073686.5745387-.2820439l6.5663837-9.41963052c.2024048-.29024587.1068908-.59385313-.2246298-.59411775l-1.8275967-.00185396c-.3136613-.00039497-.4396021.12369373-.6197821.38483572l-2.7389476 3.97361721-1.2185302-3.98049636c-.0750088-.24539931-.2541305-.37226618-.5835345-.37226618zm-8.5332824 5.82304194c-1.1260589 0-1.9108076-.8979896-1.7470316-1.9991778.1639082-1.1010559 1.2157519-1.99904556 2.3418108-1.99904556 1.1259266 0 1.9108075.89798966 1.7468993 1.99904556-.1637759 1.1011882-1.215752 1.9991778-2.3416785 1.9991778zm1.4190828 1.0075264c.1742269-.1580875.3522903-.2410338.3263613-.0453758l-.061912.4687061c-.032279.2442087.0649547.3747797.2930239.3747797h1.6957029c.2852188 0 .4246533-.1156221.495032-.5572086l1.0449646-6.55923997c.0525194-.32953622-.0272519-.49119551-.277546-.49119551h-1.8645059c-.1681415 0-.2496326.0944556-.2936854.35123192l-.0690558.4037514c-.0361153.21073917-.132423.24711908-.2221161.03518931-.3165718-.74929478-1.123413-1.08518098-2.2550281-1.06189785-2.6159173.05384236-4.3794853 2.03952652-4.5679996 4.5849328-.1459167 1.9690155 1.2652287 3.5152298 3.1245752 3.5152298 1.349101-.0001324 1.9526115-.4022962 2.632189-1.0189033zm-11.4049177-5.2360679 1.5549454.00026455c.9719402-.0367768 1.618445-.71000442 1.6832675-1.9246981.0402164-.75022083-.4663249-1.28679211-1.2729015-1.2831259l-1.4637972.00652017zm3.1093617-5.41346976c1.7295693 0 3.3248635.93767683 3.1065837 3.27604811-.258893 2.77202035-1.7528524 4.31585335-4.1026007 4.32207105h-2.0497129c-.2955375 0-.4374854.24024-.5151402.7347429l-.3955493 2.5229168c-.0596631.3808651-.254792.5689825-.5442441.5689825h-1.9089555c-.3044011 0-.4106305-.1945997-.3427654-.6295717l1.5779641-10.11283398c.0776546-.49741321.2678888-.68235568.6050979-.68235568z" fill="#1c3d92"/><path d="m72.9494844 15.5062749h-1.9573736c-.1554416 0-.263391-.1218397-.2398435-.2707991l1.7212351-10.89480467c.0235476-.14895938.1699938-.27079915.3255674-.27079915h1.9572417c.1555742 0 .2633911.12183977.2401081.27079915l-1.7213677 10.89480467c-.0236796.1489594-.1699933.2707991-.3255675.2707991zm-7.8223515-1.8174103c-1.1259269 0-1.9106756-.8979896-1.747032-1.9991778.1639083-1.1010559 1.2158843-1.99904551 2.3418106-1.99904551 1.1259267 0 1.9108076.89798961 1.7468996 1.99904551-.1637759 1.1011882-1.2156196 1.9991778-2.3416782 1.9991778zm1.4190826 1.0075263c.1742266-.1580874.3524221-.2410337.3263611-.0453757l-.0619119.4687062c-.0321471.2442087.0649545.3747796.2930239.3747796h1.6957031c.2852187 0 .4247854-.1156221.4950315-.5572086l1.0450974-6.55923992c.0523867-.32953623-.0273846-.49119551-.2776787-.49119551h-1.8643736c-.1682733 0-.2497644.09445559-.293685.35123191l-.0691885.40375141c-.0361153.21073916-.1324226.24711908-.2221161.03518931-.3165715-.74929479-1.1234132-1.08518105-2.2550281-1.06189786-2.6159171.05384237-4.3793528 2.0396588-4.5679994 4.58493276-.1457844 1.9691478 1.265361 3.5152298 3.1245752 3.5152298 1.3491008-.0001323 1.9527441-.4022961 2.6321891-1.0189034zm-11.4049179-5.23606775 1.5549455.00026455c.9719401-.03677681 1.618445-.70987215 1.6833998-1.9246981.0400841-.75022084-.4664572-1.28679212-1.2730339-1.2831259l-1.4636648.00665246zm3.1094941-5.41346977c1.7295693 0 3.3247311.93767683 3.1064514 3.27604812-.258893 2.7720204-1.7528524 4.3158534-4.1026007 4.3222033h-2.0497129c-.2955375 0-.4374855.2401078-.5150079.7346105l-.3956816 2.5230492c-.0596631.3807328-.254792.5688502-.5442442.5688502h-1.9089554c-.3044011 0-.4104982-.1944674-.3426331-.6295716l1.5778318-10.11283403c.0776546-.49741322.2678887-.68235569.6050978-.68235569z" fill="#00a2d3"/><path d="m3.33961381.00003969h5.13063213c1.44501182 0 3.15883846.04683092 4.30540236 1.05806141.7658312.67547656 1.1677305 1.7516618 1.0748624 2.90695691-.3145874 3.91765826-2.6579857 6.11183259-5.80042021 6.11183259h-2.53045743c-.43060638 0-.71608982.2854834-.83766502 1.058326l-.70603573 4.4919324c-.0457726.2915688-.17211026.4631499-.40269304.4839195h-3.16055828c-.35070277 0-.47532066-.2682856-.38351088-.8493066l2.27566546-14.40937291c.09128062-.57744913.40705863-.8523493 1.03477824-.8523493" fill="#1c3d92"/><path d="m4.7556143 10.6824515.89600524-5.67090751c.07858071-.49794238.35109965-.73500741.89230109-.73500741h5.12560507c.8483806 0 1.5339112.13242304 2.071144.37649947-.5150079 3.48665499-2.770036 5.42392075-5.72329469 5.42392075h-2.53032516c-.3331081 0-.581947.1702582-.73143555.6054947" fill="#1c2e7e"/></g></svg>