<?xml version="1.0" encoding="UTF-8"?>
<svg width="110px" height="50px" viewBox="0 0 110 50" version="1.1" xmlns="http://www.w3.org/2000/svg" xmlns:xlink="http://www.w3.org/1999/xlink">
    <title>santander-f</title>
    <g id="santander-f" stroke="none" stroke-width="1" fill="none" fill-rule="evenodd">
        <g id="banco-santander-seeklogo.com" transform="translate(13.000000, 18.000000)" fill="#EA1D25" fill-rule="nonzero">
            <path d="M11.2405542,6.44337349 C11.2048699,5.9373494 11.0621327,5.4313253 10.7766583,4.99277108 L8.35012594,0.978313253 C8.17170445,0.674698795 8.02896725,0.337349398 7.95759866,0 L7.85054576,0.168674699 C7.24391268,1.14698795 7.24391268,2.39518072 7.85054576,3.37349398 L9.8131822,6.57831325 C10.4198153,7.55662651 10.4198153,8.80481928 9.8131822,9.78313253 L9.7061293,9.95180723 C9.63476071,9.61445783 9.49202351,9.27710843 9.31360202,8.97349398 L7.52938707,6.03855422 L6.3874895,4.14939759 C6.20906801,3.84578313 6.06633081,3.50843373 5.99496222,3.17108434 L5.88790932,3.33975904 C5.28127624,4.31807229 5.28127624,5.53253012 5.88790932,6.54457831 L5.88790932,6.54457831 L7.85054576,9.74939759 C8.45717884,10.7277108 8.45717884,11.9759036 7.85054576,12.9542169 L7.74349286,13.1228916 C7.67212427,12.7855422 7.52938707,12.4481928 7.35096558,12.1445783 L4.88874895,8.13012048 C4.56759026,7.59036145 4.42485306,6.98313253 4.42485306,6.37590361 C1.81989924,7.01686747 0,8.4 0,9.98554217 C0,12.2120482 3.49706129,14 7.81486146,14 C12.1326616,14 15.6297229,12.2120482 15.6297229,9.98554217 C15.6654072,8.46746988 13.8811923,7.08433735 11.2405542,6.44337349 Z M18.627204,13.2915663 C18.6628883,12.7180723 18.7342569,12.346988 18.9126784,11.8746988 C19.7334173,12.2457831 20.8039463,12.4144578 21.5890008,12.4144578 C22.9450042,12.4144578 23.7300588,12.0096386 23.7300588,11.1662651 C23.7300588,10.3566265 23.15911,9.98554217 21.8031066,9.41204819 L21.0537364,9.14216867 C19.6620487,8.5686747 18.7342569,7.82650602 18.7342569,6.37590361 C18.7342569,4.79036145 19.9118388,3.77831325 22.2670025,3.77831325 C23.2304786,3.77831325 24.1225861,3.91325301 24.9433249,4.18313253 C24.9076406,4.72289157 24.8005877,5.16144578 24.6578505,5.56626506 C23.872796,5.29638554 22.9093199,5.16144578 22.2313182,5.16144578 C20.9466835,5.16144578 20.3757347,5.63373494 20.3757347,6.37590361 C20.3757347,7.08433735 20.9466835,7.52289157 21.9815281,7.92771084 L22.7665827,8.2313253 C24.6221662,8.97349398 25.4072208,9.78313253 25.4072208,11.1325301 C25.4072208,12.7180723 24.1225861,13.8313253 21.6246851,13.8313253 C20.4471033,13.8313253 19.4479429,13.6626506 18.627204,13.2915663 Z M33.2934509,6.64578313 L33.2934509,13.5951807 L31.7947103,13.5951807 L31.7233417,12.7518072 C31.2951301,13.3590361 30.6884971,13.7638554 29.6536524,13.7638554 C27.7267003,13.7638554 26.4063812,12.4144578 26.4063812,10.086747 C26.4063812,7.65783133 27.7980688,6.24096386 30.5100756,6.24096386 C31.5806045,6.2746988 32.472712,6.37590361 33.2934509,6.64578313 Z M31.6876574,12.0096386 L31.6876574,7.65783133 C31.3664987,7.59036145 30.9739715,7.59036145 30.5100756,7.59036145 C28.8329135,7.59036145 28.0478589,8.5686747 28.0478589,10.1204819 C28.0478589,11.5373494 28.654492,12.5493976 30.081864,12.5493976 C30.7598657,12.5156627 31.2594458,12.313253 31.6876574,12.0096386 Z M41.5722082,8.93975904 L41.5722082,13.5951807 L39.9664148,13.5951807 L39.9664148,9.20963855 C39.9664148,8.09638554 39.5738875,7.59036145 37.968094,7.59036145 C37.5755668,7.59036145 37.1473552,7.62409639 36.6834593,7.69156627 L36.6834593,13.5951807 L35.0776658,13.5951807 L35.0776658,6.64578313 C36.1125105,6.40963855 37.2544081,6.24096386 38.0037783,6.24096386 C40.7157851,6.2746988 41.5722082,7.25301205 41.5722082,8.93975904 Z M46.0684299,12.4819277 C46.5323258,12.4819277 46.9962217,12.4144578 47.3173804,12.2795181 C47.2816961,12.6843373 47.2103275,13.1566265 47.1389589,13.5614458 C46.7107473,13.7301205 46.2111671,13.7975904 45.7829555,13.7975904 C44.2128463,13.7975904 43.213686,13.1228916 43.213686,11.4361446 L43.213686,4.11566265 C43.7132662,3.94698795 44.3198992,3.87951807 44.8194794,3.87951807 L44.8194794,6.51084337 L47.388749,6.51084337 C47.3530647,6.98313253 47.3173804,7.42168675 47.2460118,7.82650602 L44.8194794,7.82650602 L44.8194794,11.2337349 C44.8194794,12.1108434 45.2833753,12.4819277 46.0684299,12.4819277 Z M54.7397145,6.64578313 L54.7397145,13.5951807 L53.240974,13.5951807 L53.1696054,12.7518072 C52.7413938,13.3590361 52.1347607,13.7638554 51.099916,13.7638554 C49.1729639,13.7638554 47.8526448,12.4144578 47.8526448,10.086747 C47.8526448,7.65783133 49.2443325,6.24096386 51.9563392,6.24096386 C53.0268682,6.2746988 53.8832914,6.37590361 54.7397145,6.64578313 Z M53.0982368,12.0096386 L53.0982368,7.65783133 C52.7770781,7.59036145 52.3845508,7.59036145 51.9206549,7.59036145 C50.2434929,7.59036145 49.4584383,8.5686747 49.4584383,10.1204819 C49.4584383,11.5373494 50.0650714,12.5493976 51.4924433,12.5493976 C52.170445,12.5156627 52.7057095,12.313253 53.0982368,12.0096386 Z M63.0184719,8.93975904 L63.0184719,13.5951807 L61.3769941,13.5951807 L61.3769941,9.20963855 C61.3769941,8.09638554 60.9844668,7.59036145 59.3786734,7.59036145 C58.9861461,7.59036145 58.5579345,7.62409639 58.0940386,7.69156627 L58.0940386,13.5951807 L56.4882452,13.5951807 L56.4882452,6.64578313 C57.5230898,6.40963855 58.6649874,6.24096386 59.4143577,6.24096386 C62.1263644,6.2746988 63.0184719,7.25301205 63.0184719,8.93975904 Z M71.1901763,3.87951807 L71.1901763,13.5951807 L69.6914358,13.5951807 L69.6200672,12.7180723 C69.1918556,13.3590361 68.5852225,13.7638554 67.5146935,13.7638554 C65.5877414,13.7638554 64.2674223,12.4144578 64.2674223,10.086747 C64.2674223,7.65783133 65.65911,6.24096386 68.3711167,6.24096386 C68.7993283,6.24096386 69.1918556,6.2746988 69.5843829,6.34216867 L69.5843829,4.04819277 C70.0839631,3.91325301 70.6549118,3.87951807 71.1901763,3.87951807 Z M69.5843829,12.0096386 L69.5843829,7.7253012 C69.1561713,7.65783133 68.7279597,7.59036145 68.2997481,7.59036145 C66.6939547,7.59036145 65.9445844,8.53493976 65.9445844,10.1204819 C65.9445844,11.5373494 66.5512175,12.5493976 67.9785894,12.5493976 C68.6209068,12.5156627 69.1561713,12.313253 69.5843829,12.0096386 Z M79.3261965,10.626506 L74.1519731,10.626506 C74.3660789,11.8746988 75.1154492,12.4481928 76.5785055,12.4481928 C77.4706129,12.4481928 78.3627204,12.2795181 79.147775,11.9084337 C79.0764064,12.313253 79.0050378,12.853012 78.8979849,13.2915663 C78.1486146,13.5951807 77.3992443,13.7301205 76.5071369,13.7301205 C73.7951301,13.7301205 72.5104954,12.313253 72.5104954,9.95180723 C72.5104954,7.8939759 73.5096558,6.24096386 76.0789253,6.24096386 C78.3984047,6.24096386 79.3975651,7.65783133 79.3975651,9.41204819 C79.3975651,9.88433735 79.3975651,10.2216867 79.3261965,10.626506 Z M74.1519731,9.34457831 L77.7917716,9.34457831 C77.7917716,8.19759036 77.1494542,7.52289157 76.043241,7.52289157 C74.8656591,7.55662651 74.259026,8.16385542 74.1519731,9.34457831 Z M85,6.34216867 C85,6.81445783 84.9286314,7.35421687 84.8572628,7.65783133 C84.4647355,7.62409639 84.1078925,7.59036145 83.6439966,7.59036145 C83.2514694,7.59036145 82.8589421,7.62409639 82.4664148,7.65783133 L82.4664148,13.5951807 L80.8606213,13.5951807 L80.8606213,6.64578313 C81.538623,6.40963855 82.7162049,6.24096386 83.6083123,6.24096386 C84.0722082,6.2746988 84.643157,6.2746988 85,6.34216867 Z" id="Shape"></path>
        </g>
    </g>
</svg>