<svg height="50" viewBox="0 0 110 50" width="110" xmlns="http://www.w3.org/2000/svg"><g fill="#fff" transform="translate(13 16)"><path d="m18.1874 5.4824v-4.4968h1.7787v-.8932h-4.5661v.8932h1.7787v4.4968zm3.7088333 0v-1.9558h1.1242l.9702 1.9558h1.1088l-1.1396-2.1021c.6006-.2464 1.0318-.7931 1.0318-1.5708 0-1.0857-.847-1.7171-1.8095-1.7171h-2.2869v5.39zm1.1858-2.8182h-1.1858v-1.6786h1.1858c.5313 0 .8932.3388.8932.8393s-.3619.8393-.8932.8393zm3.7935334 2.8182.3696-.9394h2.4948l.3696.9394h1.1165l-2.2176-5.39h-1.0626l-2.1791 5.39zm2.5333-1.8634h-1.8403l.9086-2.3639h.0154zm3.7011333 1.8634v-3.7653l2.5025 3.7653h1.1473v-5.39h-1.0164v3.773l-2.5025-3.773h-1.1396v5.39zm6.7272333.0847c1.1165 0 2.002-.6468 2.002-1.6478 0-1.0857-1.0164-1.3167-1.7556-1.5246-.616-.1617-1.2166-.2695-1.2166-.7854 0-.3696.3388-.7084.9086-.7084.5005 0 .8162.2618.9625.7161l.924-.2695c-.2618-.8701-.9317-1.3475-1.9096-1.3475-1.078 0-1.925.6853-1.925 1.6093 0 1.0703.9163 1.3706 1.7017 1.5708.6237.1617 1.2628.2387 1.2628.77 0 .4158-.385.693-.9471.693-.5313 0-.9779-.2695-1.1242-.7546l-.9779.2695c.2618.8855 1.0626 1.4091 2.0944 1.4091zm3.9860334-.0847v-2.1945h2.6796v-.8932h-2.6796v-1.4014h2.7412v-.9009h-3.7499v5.39zm7.6204333 0v-.9009h-2.7412v-1.3629h2.6796v-.8778h-2.6796v-1.3475h2.7412v-.9009h-3.7499v5.39zm2.0995333 0v-1.9558h1.1242l.9702 1.9558h1.1088l-1.1396-2.1021c.6006-.2464 1.0318-.7931 1.0318-1.5708 0-1.0857-.847-1.7171-1.8095-1.7171h-2.2869v5.39zm1.1858-2.8182h-1.1858v-1.6786h1.1858c.5313 0 .8932.3388.8932.8393s-.3619.8393-.8932.8393zm6.7349334 2.8182v-.9009h-2.7412v-1.3629h2.6796v-.8778h-2.6796v-1.3475h2.7412v-.9009h-3.7499v5.39zm2.1072333 0v-3.7653l2.5025 3.7653h1.1473v-5.39h-1.0164v3.773l-2.5025-3.773h-1.1396v5.39zm7.4510333.077c1.0626 0 1.9635-.5929 2.4178-1.4707l-.9163-.462c-.2849.539-.847.9086-1.5092.9086-.9702 0-1.7094-.7854-1.7094-1.7479s.7392-1.7479 1.7094-1.7479c.6545 0 1.2089.3619 1.5015.8855l.9086-.462c-.4543-.8624-1.3475-1.4476-2.4024-1.4476-1.5477 0-2.7412 1.2397-2.7412 2.772s1.1935 2.772 2.7412 2.772zm4.4480334-.077v-5.39h-1.0087v5.39zm1.9917333 0 .3696-.9394h2.4948l.3696.9394h1.1165l-2.2176-5.39h-1.0626l-2.1791 5.39zm2.5333-1.8634h-1.8403l.9086-2.3639h.0154z"/><path d="m20.0166906 17.1449789c1.8633954 0 3.0249926-1.0042976 3.0249926-2.5288938 0-.8711979-.3992991-1.4882964-.9558977-1.8512955.411399-.3629991.7017983-.8590978.7017983-1.5608961 0-1.5124963-1.1615972-2.5288938-3.0249926-2.5288938h-3.5694912v8.4699792zm-.2540994-5.1545874h-1.1857971v-1.2583969h1.1857971c.3266992 0 .6896983.1209997.6896983.6291985 0 .4960988-.3629991.6291984-.6896983.6291984zm.1935995 3.0975924h-1.3793966v-1.2583969h1.3793966c.3266992 0 .7017983.1451997.7017983.6291985 0 .5081987-.3750991.6291984-.7017983.6291984zm6.372651 2.056995.3871991-1.0889974h3.1580922l.3871991 1.0889974h2.6619934l-3.3637917-8.4699792h-2.5288938l-3.3637917 8.4699792zm2.7708932-3.2911919h-1.609296l.798598-2.4078941h.0242zm7.4132485 3.2911919v-4.5616888l2.819293 4.5616888h2.7224933v-8.4699792h-2.419994v4.5616888l-2.8192931-4.5616888h-2.7224933v8.4699792zm11.2973388.1209997c1.6697959 0 3.0975924-.9195978 3.8235906-2.2868944l-2.1900946-1.1131973c-.3145992.5686986-.9316977.9558977-1.6455959.9558977-1.0647974 0-1.8875954-.8590979-1.8875954-1.9117953s.822798-1.9117953 1.8875954-1.9117953c.7017982 0 1.3067967.3750991 1.6334959.9195977l2.1779947-1.1131972c-.7259982-1.34309673-2.1416948-2.2505945-3.7993907-2.2505945-2.444194 0-4.3438893 1.9480952-4.3438893 4.3559893s1.8996953 4.3559893 4.3438893 4.3559893zm7.0502494-.1209997.387199-1.0889974h3.1580922l.3871991 1.0889974h2.6619934l-3.3637917-8.4699792h-2.5288938l-3.3637917 8.4699792zm2.7708931-3.2911919h-1.609296l.798598-2.4078941h.0242zm7.3890485 3.2911919v-2.6135936h.9437977l1.209997 2.6135936h2.6377935l-1.597196-3.0491925c.798598-.4718989 1.3672966-1.3309968 1.3672966-2.4925939 0-1.86339542-1.4519964-2.9281928-2.9886926-2.9281928h-3.9687903v8.4699792zm1.3188968-4.6705885h-1.3188968v-1.6818959h1.3188968c.4960988 0 .822798.3750991.822798.8469979s-.3266992.834898-.822798.834898zm7.183349 4.6705885v-8.4699792h-2.4199941v8.4699792zm3.8316572 0 .3871991-1.0889974h3.1580922l.387199 1.0889974h2.6619935l-3.3637917-8.4699792h-2.5288938l-3.3637917 8.4699792zm2.7708932-3.2911919h-1.609296l.798598-2.4078941h.0241999z"/><path d="m11.5623659 2.92986819c-.5324839-.61939816-1.1190648-1.19701567-1.80853604-1.69733897-.34155344-.25277294-.70644283-.48570007-1.10633614-.69460333-.40307549-.20472519-.8156975-.40213877-1.30893461-.53792589.0084858.50450137.09758669.94842079.20259846 1.38293957.09970815.42198458.23442022.81785625.39140752 1.19806018-.37549664.1086297-.83160838.26112907-1.34499926.45749814-.33200692.14623228-.69583558.27784133-1.06284642.47316588-.37231447.17547873-.74993255.38856005-1.13285427.62670977-.38928606.21621487-.752054.52330266-1.13285426.7886098-.34685707.32484456-.72765733.60581945-1.0363283.9745337-.31927821.3530465-.63113136.70609301-.87191592 1.10718726-.12198337.19532455-.2630598.37602587-.36488939.57552848-.0975867.20263616-.1909305.4042278-.28215284.60059686-.20684137.38020393-.30124589.78965432-.40943984 1.16254663-.12834772.36975877-.1739589.73220593-.20896282 1.06645113-.02863958.3332007-.09970815.6277543-.08273655.8993285.0084858.2673962.01485015.4992788.0212145.6914698.01166798.3791594.01485015.5953743.01485015.5953743s.04136827-.2141258.11137612-.5870182c.03500393-.1848793.07849365-.4073613.12834772-.6643123.03924683-.2559065.1739589-.5274807.2673027-.8272569.09970814-.2997762.21532716-.61939818.40625766-.92648596.17395889-.31231038.33200691-.64968914.58870236-.94110918.11561902-.14936583.23442021-.30395424.35216069-.45749814.12410482-.14936583.28321356-.27784133.42004708-.41780651.26942415-.28933101.59824889-.52330266.92389145-.75518528.31079242-.24337229.68947123-.40736135 1.01723525-.60686396.37337519-.1472768.70219993-.33111167 1.06921076-.43765233.35003924-.12534195.69477486-.2308381 1.0320854-.30604327.32776401-.09400647.65764948-.13578712.94510595-.19636906.18456614-.02611291.35428214-.04804775.51763378-.06789356-.01909305.04804775-.03924682.09400646-.05621842.14309873-.16759455.45227555-.29806372.92753046-.38928607 1.42785377-.04136827.25381745-.07531147.51076846-.10182959.77294205-.0212145.26635165-.0254574.54210395-.00636435.83247948.27684921-.10445163.52824103-.22248197.76690415-.35095747.23017732-.13265357.45611174-.27052972.67143891-.41258393.42747216-.28933102.81251532-.60373042 1.16043311-.94006466.70432137-.67057946 1.28665937-1.41949764 1.77565357-2.2248197l.0625828-.1023626c.3001852-.5003233.2651812-1.15523501-.138955-1.62422283z"/><path d="m13.952297 6.18379966c-.0205516-.3720695-.0378582-.58379966-.0378582-.58379966s-.0313682.21070234-.0973496.57968839c-.0313682.18192349-.0670631.40290399-.1092479.65677462-.0324499.25284281-.1611677.52315849-.2477007.82122522-.0897779.29806673-.1968625.61463415-.3829084.92297903-.166576.31245616-.3169271.64752427-.5700361.94250755-.1124929.151089-.2282307.30526144-.342887.46148952-.1243911.14903337-.2801505.28059387-.4196849.42243247-.2639257.290872-.5916693.5324089-.9172497.7688066-.3061104.2487316-.6890189.4193491-1.01784426.6259401-.37425517.1552003-.70416219.3463741-1.07517237.4604617-.35154026.134644-.70091719.2477038-1.04272249.3309569-.32990701.1027816-.66305901.1531446-.95510785.2199527-.18712758.0318623-.36127522.0585855-.52568789.0822253.01514327-.0483074.03569485-.0935313.05300145-.1418387.15575938-.4512113.27474224-.9219512.35262192-1.4163308.03353154-.2507872.05840977-.5046578.07787969-.7636675.01406161-.2620932.00973496-.5344645-.01730659-.81814181-.27906889.10894853-.53217788.2333143-.77122525.36693041-.2325574.1366996-.45429818.2785382-.67171231.4244881-.42401164.297039-.80692011.6166898-1.15088873.9589526-.69659055.6793866-1.2666266 1.432776-1.7403947 2.2396118l-.06165476.100726c-.29096717.5015743-.23472072 1.1439595.1925359 1.594143.56246442.59305 1.17901195 1.1449874 1.89507242 1.6167551.35478524.2394812.73444872.4573782 1.15088872.6506077.41427668.1911738.84045164.3741251 1.3499146.492324-.02704156-.4943796-.13304447-.9281181-.24878234-1.3526062-.11573787-.4121544-.26392561-.7986133-.43699158-1.1675994.38074514-.1181988.83828831-.2805938 1.35640457-.4882127.333152-.1521168.69983553-.2939555 1.06868239-.4964353.37209185-.1819235.75283699-.402904 1.13033714-.6485521.38939842-.2240639.75067362-.5365201 1.13250052-.8088914.3428869-.3278734.7225504-.6177176 1.0264975-.9877315.3147638-.3566522.6197925-.7112488.8534316-1.113125.1189829-.1963129.2541906-.3782364.3537036-.5776328.0908596-.2024798.1817193-.4029039.2682522-.59921686.1990259-.38029203.2833956-.78627947.3829085-1.15526552.1168195-.3659026.1557594-.72461049.179556-1.05351171.0227149-.3278734.0822063-.62080104.0584097-.88700546-.0183882-.26209316-.0313682-.49129619-.0421848-.68041439z"/></g></svg>