<svg height="50" viewBox="0 0 110 50" width="110" xmlns="http://www.w3.org/2000/svg"><g fill="none" transform="translate(24 15)"><g fill="#005c9c"><path d="m26.48685 19.80789h-4.96383l3.10233-19.06584h4.96434z"/><path d="m17.34714.74205-4.7328 13.11312-.55947-2.82387.00051.00102-1.67076-8.5731s-.20145-1.71717-2.35467-1.71717h-7.82289l-.09129.32232s2.39292.49776 5.1918 2.18025l4.31256 16.56327h5.17191l7.89735-19.06584z"/><path d="m50.92809 13.06365 2.60865-7.13541 1.46727 7.13541zm5.4621 6.74424h4.55787l-3.97392-19.06584h-3.99075c-1.84314 0-2.29143 1.42086-2.29143 1.42086l-7.40265 17.64498h5.17344l1.0353-2.83152h6.31023z"/><path d="m43.67742 5.32695.70788-4.09479s-2.18586-.8313-4.46454-.8313c-2.4633 0-8.31249 1.07712-8.31249 6.31176 0 4.92609 6.86511 4.98729 6.86511 7.5735s-6.15774 2.12415-8.18958.49266l-.73848 4.28043s2.21595 1.07712 5.60337 1.07712c3.38691 0 8.49762-1.75491 8.49762-6.52749 0-4.9572-6.92733-5.41875-6.92733-7.57401s4.83429-1.87833 6.95844-.70788"/></g><path d="m12.05538 11.03232-1.67076-8.5731s-.20145-1.71717-2.35467-1.71717h-7.82289l-.09129.32232s3.76023.77979 7.36746 3.69903c3.4476 2.79072 4.57215 6.26892 4.57215 6.26892" fill="#ee9f3f"/></g></svg>